<svg width="232.59312mm" height="197.78145mm" viewBox="0 0 232.59312 197.78145" xmlns="http://www.w3.org/2000/svg">
    <path d="m 1379.0918,991.82458 c 0,0 -19.8234,-17.16494 -25.3703,-25.98509 -5.5469,-8.82015 -2.8189,-45.10422 -5.1832,-54.39971 -2.3643,-9.29548 -4.0011,-16.63681 -7.7293,-13.04537 -3.7283,3.59144 -8.9115,22.76339 -8.9115,22.76339 0,0 -11.6394,-3.80271 -13.2762,-2.79922 -1.6368,1.00349 -2.3643,9.3483 -0.8184,11.51373 1.5458,2.16542 2.4552,7.02441 2.4552,7.02441 0,0 -10.3664,-7.28848 -13.1853,-4.43646 -2.8189,2.85202 4.4557,15.84457 4.4557,15.84457 0,0 -9.457,-2.58796 -10.1845,1.10911 -0.7275,3.69706 16.4589,20.43952 12.0032,20.06981 -4.4558,-0.36971 -8.2749,2.53513 -7.3656,6.2322 0.9093,3.69706 14.1855,15.84457 14.1855,15.84457 0,0 -7.2746,5.54562 -5.2741,8.13355 2.0006,2.58793 23.6427,13.25663 23.6427,13.25663 0,0 -2.5462,6.0209 2.0914,8.873 4.6376,2.852 15.7314,3.6442 15.7314,3.6442 0,0 -29.0076,41.2487 -38.3737,47.4809 -9.3662,6.2322 -11.9895,3.6198 -9.1843,8.3448 4.5466,7.6582 25.3019,9.8918 29.917,9.8765 15.9133,-0.053 29.1896,-11.8306 39.465,-18.8551 10.2754,-7.0244 17.1864,-11.144 17.1864,-11.144 0,0 27.8255,42.5163 33.5543,46.4246 5.7288,3.9083 0.4263,8.6101 9.548,8.4505 15.0949,-0.2641 23.7335,-7.8167 31.8265,-12.6757 8.0931,-4.859 62.3802,-58.6778 62.3802,-58.6778 0,0 -18.0957,-12.6756 -19.6415,-13.1509 -1.5459,-0.4754 2.8189,-13.8376 2.8189,-13.8376 0,0 11.8213,-6.7076 13.549,-8.7674 1.7278,-2.0598 1.6368,-12.99252 1.6368,-12.99252 0,0 15.004,-2.11262 15.3677,-6.33784 0.3637,-4.22522 0.7275,-10.24615 0.7275,-10.24615 0,0 7.5474,-3.85548 6.6381,-8.02791 -0.9093,-4.17242 -8.2749,-7.65821 -8.2749,-7.65821 0,0 11.0938,-14.15449 8.3658,-16.37273 -2.728,-2.21824 -10.4573,-3.53862 -10.4573,-3.53862 0,0 12.5488,-28.15054 10.5483,-33.32643 -2.0006,-5.17588 -3.2737,-4.91182 -6.5472,-2.21824 -3.2736,2.69358 -67.7452,79.11725 -67.7452,79.11725 0,0 -8.7296,-28.41459 -12.4579,-30.68565 -3.7282,-2.27107 -28.0983,-2.95767 -28.0983,-2.95767 z" fill="#fff" paint-order="fill markers stroke" transform="translate(171.66944,46.034791) matrix(0.88387885,0,0,0.88387885,-1317.6221,-836.85707)"/>
    <path d="m 1434.1404,1115.335 c -9.6001,-6.7474 -12.9209,-9.966 -21.2457,-20.5924 -13.6723,-17.4523 -20.1093,-32.0888 -23.8645,-54.2635 l -1.5919,-9.4006 -5.8534,11.9615 c -6.1795,12.6279 -17.626,28.7704 -26.1716,36.9086 -6.2191,5.9226 -14.8334,11.7966 -17.2999,11.7966 -3.0757,0 -2.0072,-3.5667 1.8198,-6.0742 15.7197,-10.3 34.8663,-36.152 42.901,-57.9258 3.9299,-10.6499 6.7777,-23.8556 5.3364,-24.7463 -0.6728,-0.4158 -1.4965,0.032 -1.8304,0.9951 -0.3339,0.9632 -1.9,5.6512 -3.4802,10.4179 -5.9493,17.9458 -12.9411,29.0176 -28.3702,44.9257 -13.0199,13.4242 -34.3709,30.0048 -36.2358,28.1399 -0.3557,-0.3557 2.7737,-3.291 6.9542,-6.5229 22.3799,-17.3012 41.7929,-40.3752 48.6933,-57.8761 3.4193,-8.6718 6.3705,-19.4737 5.1072,-18.6929 -0.6446,0.3983 -2.1322,3.5672 -3.3058,7.0419 -3.0737,9.1007 -18.1515,29.5234 -32.1512,43.5482 -11.8052,11.8264 -29.108,24.8875 -33.4543,25.253 -5.0906,0.4282 -2.6294,-3.7861 8.2522,-14.1303 10.5702,-10.0481 31.2746,-33.4544 33.9471,-38.3771 0.9221,-1.6986 -0.1826,-2.0534 -6.8715,-2.2072 -9.5946,-0.2206 -13.4841,-2.9092 -12.8644,-8.8926 0.3761,-3.6309 -0.033,-4.0246 -5.6606,-5.4542 -14.1609,-3.5969 -20.9179,-11.75309 -14.3892,-17.36885 l 3.282,-2.82307 -6.4134,-5.72442 c -7.1639,-6.3942 -8.8017,-12.56807 -3.7588,-14.16864 3.7161,-1.17944 5.4874,0.29936 4.5988,3.83951 -0.5771,2.29932 0.7272,4.66316 5.5053,9.97749 l 6.2615,6.9643 -3.0392,3.23503 c -3.9954,4.25291 -2.5183,5.99005 9.0788,10.67765 4.9171,1.9875 10.2901,4.245 11.9401,5.0166 3.1348,1.4659 3.9484,4.2088 1.6667,5.619 -2.3971,1.4814 -1.4086,3.0462 2.8656,4.5362 8.1133,2.8283 11.3356,1.9572 15.5471,-4.2029 2.1308,-3.1167 5.0781,-8.3667 6.5496,-11.6667 1.4715,-3.3 4.2203,-7.42011 6.1084,-9.15584 l 3.433,-3.15587 -7.8964,-5.27303 c -10.004,-6.68039 -16.4355,-14.18455 -20.2633,-23.64277 -2.7556,-6.80879 -2.9937,-9.38392 -2.8102,-30.39144 0.1902,-21.77195 0.2225,-29.90068 -2.2738,-30.69301 -3.1603,-1.00305 -5.8871,8.83 -8.1202,15.97866 -1.7571,5.62469 -3.0127,5.9712 -9.84,2.71547 -3.9459,-1.88165 -4.9865,-1.96773 -5.901,-0.4881 -1.6412,2.6555 0.5718,8.9001 5.8909,16.62325 8.3058,12.05969 5.4478,13.61021 -6.3977,3.47086 -12.1369,-10.3888 -15.0365,-7.89364 -5.8217,5.00963 2.2249,3.11545 3.6691,6.04056 3.2094,6.50024 -0.4597,0.45969 -3.2347,-0.12406 -6.1667,-1.29722 -2.932,-1.17315 -5.6291,-1.65047 -5.9936,-1.06071 -0.3645,0.58976 2.0095,5.05567 5.2756,9.92424 3.2661,4.86857 5.9383,9.17078 5.9383,9.56047 0,0.38969 -1.0103,0.70853 -2.2451,0.70853 -3.0308,0 -14.8001,-12.38791 -15.8883,-16.72337 -1.2919,-5.14736 1.3676,-9.94329 5.5138,-9.94329 3.2859,0 3.346,-0.13067 1.3619,-2.96335 -4.5944,-6.55943 -1.3611,-12.37863 6.3761,-11.47535 l 4.4885,0.524 -0.6423,-5.69856 c -0.3946,-3.50129 0,-6.47387 1.0265,-7.70932 2.1265,-2.56223 7.928,-2.58575 11.5528,-0.0468 2.6296,1.84182 2.8509,1.72905 3.5594,-1.81383 0.9773,-4.88643 7.208,-17.60206 9.9472,-19.14384 6.3044,-3.54853 10.909,7.35164 11.7191,11.19136 0.3361,1.59334 0.7011,17.90239 1.0036,27.80239 0.3515,11.50431 1.3314,20.45583 2.7155,24.80527 2.3401,7.35355 8.9903,15.71938 19.4714,24.49464 l 6.5961,5.52258 9.7219,-6.55708 c 5.3471,-3.6064 29.7729,-20.05064 40.6919,-27.0383 7.5028,-6.09849 11.4011,-6.30121 20.574,-6.11949 9.827,0.19468 10.3072,1.02241 14.456,3.83241 3.8228,2.58914 5.3922,5.20107 8.6786,14.44367 2.2065,6.20564 4.6665,11.28297 5.4666,11.28297 1.5516,0 13.4876,-14.23375 30.1885,-36 5.6267,-7.33333 12.2035,-15.55452 14.615,-18.2693 5.2513,-5.91164 23.4219,-21.06404 25.2598,-21.06404 3.1722,0 6.3652,3.01161 7.7989,7.3558 1.8698,5.66548 -0.056,12.45092 -6.4431,22.69892 l -4.1207,6.61195 3.9141,1.03015 c 5.4057,1.42274 7.213,5.20051 5.284,11.04538 -0.8371,2.53639 -2.6999,5.24202 -4.1396,6.01251 -2.497,1.33637 -2.426,1.57988 1.5417,5.28624 4.8389,4.52021 4.5451,8.02188 -1.1026,13.13968 -2.6861,2.43413 -3.4199,4.22452 -3.1267,7.62841 0.4812,5.58531 -3.8681,10.30104 -11.6515,12.63301 -4.9128,1.47191 -5.4963,2.08822 -5.4963,5.80562 0,5.6073 -3.2565,9.8832 -9.7365,12.7844 -3.9213,1.7556 -5.4342,3.2553 -5.5711,5.5223 -0.1033,1.7118 -0.6218,4.3994 -1.1523,5.9726 -0.8575,2.543 0.2868,3.4919 10.3169,8.5552 6.7212,3.3929 11.5428,6.6947 11.9281,8.1683 1.851,7.078 -45.8266,50.1235 -66.3181,59.875 -7.2793,3.4641 -8.1941,3.6065 -12.2566,1.9091 -14.6026,-6.1014 -33.3787,-28.214 -44.6004,-52.5258 -5.1321,-11.1187 -11.5597,-31.3089 -12.6972,-39.884 -0.8016,-6.0426 -1.3584,-6.9688 -4.9404,-8.2175 -5.8887,-2.0528 -5.9753,-1.9905 -6.9341,4.9805 -1.8489,13.4435 4.5916,44.3582 12.5087,60.0419 5.371,10.6398 18.2493,27.3272 29.3897,38.0823 5.1682,4.9894 9.3966,9.3154 9.3966,9.6132 0,1.5208 -5.1662,0.037 -8.8257,-2.5354 z m 68.7126,-47.7015 c 24.6517,-21.2695 24.0264,-20.5085 18.9915,-23.1122 -2.1874,-1.1311 -5.4102,-3.8878 -7.1619,-6.126 l -3.1848,-4.0695 -5.2659,2.2029 c -4.0851,1.709 -8.1129,2.0664 -17.964,1.5938 -14.0189,-0.6725 -20.6351,-2.9368 -20.6351,-7.0619 0,-2.3264 0.8114,-2.6152 6.6667,-2.3729 30.5964,1.266 30.9093,1.2463 34.5552,-2.1749 5.2132,-4.8919 4.3051,-11.8233 -0.9306,-7.1039 -5.1204,4.6155 -31.6972,1.0845 -29.9417,-3.9781 0.4281,-1.2345 3.7837,-1.5702 12.5397,-1.2544 9.6047,0.3463 12.2963,0.02 13.6906,-1.66 1.4361,-1.7304 1.3773,-2.6379 -0.3407,-5.2599 -1.9604,-2.992 -1.8763,-3.3486 1.509,-6.3985 1.9718,-1.77645 5.7561,-4.20618 8.4096,-5.3994 5.6172,-2.52601 7.8627,-8.38168 3.6378,-9.48652 -4.0007,-1.0462 -2.8536,-3.38948 3.5536,-7.25961 6.5426,-3.95188 8.4563,-7.32175 5.9043,-10.39681 -2.1044,-2.53559 -0.4485,-4.22344 2.388,-2.4342 6.2992,3.97345 5.3905,10.80022 -2.1662,16.27431 -5.0033,3.62433 -5.0754,3.79238 -2.8209,6.57658 2.1889,2.70308 2.7057,2.7661 9.5797,1.16816 9.0421,-2.10189 10.4326,-2.95178 10.4326,-6.37665 0,-2.08869 -0.5486,-2.498 -2.3334,-1.74107 -4.1713,1.76904 -7.57,1.36175 -8.0419,-0.96371 -0.3326,-1.63892 0.9376,-2.64815 4.6251,-3.6748 2.7959,-0.77845 6.5835,-2.60728 8.4168,-4.06408 2.8251,-2.24489 3.0284,-2.85038 1.3333,-3.97144 -1.0999,-0.7275 -3.8765,-1.33192 -6.17,-1.34315 -2.2936,-0.0112 -4.8647,-0.85731 -5.7136,-1.88018 -1.2262,-1.47756 -0.7072,-2.50513 2.5254,-5 10.4334,-8.05235 12.0249,-9.46026 12.0249,-10.63802 0,-0.7419 -2.7435,-0.89679 -6.6666,-0.37636 -5.5444,0.73548 -6.6667,0.532 -6.6667,-1.20872 0,-1.1512 0.6,-2.46391 1.3333,-2.91713 0.7334,-0.45323 1.3334,-1.75023 1.3334,-2.88222 0,-1.132 2.4,-7.17964 5.3333,-13.43922 5.0583,-10.79425 6.8236,-19.0119 4.0841,-19.0119 -0.6871,0 -4.6064,4.35 -8.7096,9.66667 -17.8304,23.10306 -23.0696,30.05974 -27.3632,36.33333 -6.9917,10.21559 -22.8951,28.67939 -31.8181,36.94046 -8.9442,8.28078 -25.6407,16.14538 -28.406,13.38008 -1.0653,-1.0653 0.2849,-2.675 4.9431,-5.8931 8.8753,-6.13157 15.2697,-11.76835 15.2697,-13.46057 0,-0.78296 -0.8806,-2.39661 -1.9569,-3.58589 -1.0763,-1.18928 -2.9414,-6.03653 -4.1446,-10.77165 -1.2033,-4.73513 -2.359,-8.79559 -2.5682,-9.02324 -0.2092,-0.22766 -11.3093,7.42691 -24.6668,17.01015 -13.3576,9.58324 -26.0332,18.45587 -28.168,19.717 -2.1349,1.2611 -3.5902,2.9065 -3.2342,3.6565 0.3561,0.75 3.3916,8.2636 6.7456,16.6969 13.9888,35.1736 22.0539,49.2803 35.4466,62 3.8606,3.6667 8.8474,8.4964 11.0816,10.7327 l 4.0622,4.0659 8.5882,-6.7326 c 4.7235,-3.703 17.3391,-14.2829 28.0347,-23.511 z m 21.731,-62.1458 c 2.6969,-2.4407 2.8129,-2.9977 1.1662,-5.59813 -0.9729,-1.53639 -1.8295,-1.39445 -4.9795,0.82503 -2.0925,1.4744 -5.1546,3.0999 -6.8046,3.6122 -2.805,0.8709 -4.0483,4.5923 -2.164,6.4766 1.073,1.073 9.6759,-2.5048 12.7819,-5.3157 z m -100.7872,-21.22473 c 9.4431,-7.04855 21.843,-15.89856 27.5552,-19.66666 10.0513,-6.63037 6.8683,-5.48175 2.8511,-5.8932 -6.2881,-0.64404 -10.9073,-1.76028 -28.1776,9.51371 -9.5241,6.21728 -24.376,15.90007 -30.0594,19.1809 -5.6833,3.28084 -10.3333,6.16346 -10.3333,6.40582 0,0.24237 1.9653,0.12174 4.3675,-0.26808 2.514,-0.40797 6.3334,0.14728 9,1.3084 2.5478,1.10942 5.3063,2.06608 6.1299,2.1259 0.8235,0.0598 9.2235,-5.65823 18.6666,-12.70679 z m 25.1693,125.90643 c -9.4302,-4.9356 -20.9028,-16.0455 -28.3364,-27.4408 -12.4735,-19.1211 -21.8776,-45.9764 -23.2227,-66.3167 -0.7824,-11.8311 1.9351,-8.3965 4.2435,5.3634 2.6554,15.8278 4.0663,20.4239 10.6993,34.8533 10.1613,22.1049 22.1485,37.6007 37.2644,48.1714 4.7769,3.3406 9.2553,6.5698 9.9519,7.1761 2.599,2.262 -5.446,0.8907 -10.6,-1.8067 z M 1333.8533,997.61631 c -2.1243,-1.48794 -2.9161,-3.19409 -2.63,-5.66667 0.4969,-4.29272 4.232,-4.78418 4.8229,-0.63457 0.2273,1.59675 1.2773,3.62021 2.3333,4.49659 4.5758,3.79758 0.5888,5.38724 -4.5262,1.80465 z m -6.581,-15.20637 c -5.5864,-3.40602 -7.7962,-7.96827 -5.7298,-11.82942 1.7599,-3.28834 7.4195,-3.83983 8.5725,-0.83532 0.522,1.36038 -0.072,2 -1.8574,2 -3.78,0 -3.2326,2.91878 1.3752,7.33333 6.4054,6.13682 5.149,7.91001 -2.3605,3.33141 z m -0.8543,-21.43371 c -1.8985,-2.25627 -3.4519,-4.83627 -3.4519,-5.73333 0,-4.47855 7.5861,-6.54289 10.6182,-2.88944 2.0966,2.52625 0.4394,5.1383 -2.7336,4.30855 -2.3162,-0.60569 -2.3505,-0.3962 -0.5162,3.15096 3.5029,6.77383 1.344,7.41504 -3.9165,1.16326 z" transform="translate(171.66944,46.034791) matrix(0.88387885,0,0,0.88387885,-1317.6221,-836.85707)"/>
</svg>
