<svg width="105.91204mm" height="100.02405mm" viewBox="0 0 105.91204 100.02405" xmlns="http://www.w3.org/2000/svg">
    <path d="m 86.8663,98.4255 c -0.7343,0.011 -1.5136,0.057 -2.3681,0.1495 -3.0583,0.3339 -7.3696,2.8145 -7.3696,4.265 0,1.4771 0.5454,1.5186 4.9275,0.3752 4.2593,-1.1113 6.0513,-1.0127 8.5611,0.4734 1.3438,0.7956 1.9003,1.7523 1.9003,3.2664 0,4.2847 -3.1926,7.225 -10.1519,9.3509 -2.7791,0.8489 -3.5151,2.6341 -1.6039,3.8888 0.5877,0.3859 2.7195,0.9967 4.7363,1.3573 4.5681,0.8172 5.8955,1.7111 7.1385,4.8091 2.071,5.1628 -2.641,10.925 -9.1631,11.2045 -1.8438,0.078 -3.8338,0.3771 -4.4218,0.662 -1.5628,0.7578 -1.3041,3.267 0.4274,4.145 3.5962,1.8229 11.4965,0.9109 15.3483,-1.7724 3.4007,-2.3695 5.639,-6.7574 5.5412,-10.8655 -0.1086,-4.5999 -1.1763,-6.8714 -4.558,-9.6933 -1.795,-1.4991 -2.2756,-2.2698 -1.5695,-2.5227 2.0304,-0.7273 5.1081,-6.3038 5.1081,-9.2832 0.012,-4.0893 -1.7919,-6.7268 -6.2775,-8.539 -2.2037,-0.8913 -4.002,-1.2865 -6.2053,-1.271 z m 31.4816,0.011 c -2.3998,0.073 -4.6187,0.6871 -6.2225,1.883 -5.4395,4.0578 -7.891,14.1413 -6.088,26.7719 0.5778,4.0467 1.1355,10.9411 8.2278,14.7893 5.4226,2.9427 12.2779,1.5139 15.9208,-3.6464 3.0398,-4.3063 4.479,-8.7675 5.0809,-15.7531 0.878,-10.1882 -1.1289,-16.4284 -5.7273,-20.3348 -2.72,-2.3108 -6.5642,-3.5887 -10.153,-3.7081 -0.3489,-0.012 -0.6958,-0.012 -1.0387,0 z m 1.3371,4.8748 c 1.2881,0.042 2.6403,0.4436 3.989,1.2261 3.3058,1.9179 4.3478,4.7061 4.6718,12.495 0.3957,9.51 -1.4671,16.479 -5.3989,20.197 -0.7815,0.7392 -2.1566,1.3438 -3.055,1.3438 -2.3462,0 -4.9627,-2.2661 -6.2071,-5.3754 -2.3864,-5.963 -2.7177,-21.7879 -0.539,-25.7531 1.4254,-2.5934 3.5755,-4.0118 5.9913,-4.129 0.1812,-0.011 0.364,-0.011 0.5479,0 z m -10.5869,46.1952 c -0.455,-0.017 -0.9223,0.1115 -1.2961,0.4302 -0.46,0.3922 -0.6407,1.2076 -0.4018,1.8118 0.5519,1.3967 2.9968,1.0247 3.3941,-0.5162 0.2453,-0.9509 -0.6956,-1.6889 -1.6962,-1.7258 z m -19.2427,2.4694 c -0.8887,0 -1.762,0.2236 -2.4216,0.7202 -0.7768,0.5854 -1.9911,1.1056 -2.4243,-0.1517 -0.2526,-0.7333 -1.5823,-0.5354 -1.8891,-0.2739 -0.653,0.5561 -1.035,13.5659 -0.453,15.3844 0.2568,0.8028 0.9751,1.1657 2.0459,1.031 1.5562,-0.1949 1.6626,-0.5565 1.8835,-6.3987 0.1996,-5.2866 0.4149,-6.1919 1.4728,-6.1919 1.3529,0 2.0572,2.9281 1.8786,7.811 -0.1333,3.6443 0.4189,4.908 2.1441,4.908 2.3147,0 3.3177,-2.4578 3.0407,-7.4507 -0.2291,-4.1341 -0.1146,-4.5732 1.2928,-4.9632 3.6312,-0.8402 2.1215,3.5539 2.6132,5.6601 0.3391,5.8624 1.2596,7.5408 3.4658,6.3175 1.0682,-0.5919 1.3177,-1.5281 1.2489,-4.6708 -0.1182,-5.3501 -1.0091,-8.4964 -2.8301,-9.9984 -1.4814,-1.2218 -3.4607,-1.9545 -5.4966,-0.3657 -1.1316,0.8822 -0.9389,1.5039 -1.9158,0.1328 -0.6505,-0.9125 -2.1747,-1.5065 -3.6558,-1.5 z m 31.1202,0.6808 c -1.1502,-0.014 -2.3242,0.2364 -3.2157,0.7976 -0.8126,0.5113 -1.0437,0.5753 -1.4329,0.2072 -0.4004,-0.3789 -1.6117,-0.1338 -1.7923,0.5776 -0.2419,0.9449 -0.068,3.6209 -0.1918,6.7492 -0.199,5.0339 -0.011,7.1278 0.658,7.3363 2.9143,0.9084 3.8225,-1.038 3.1352,-6.7204 -0.5421,-4.4854 -0.1146,-5.4192 1.2183,-5.4761 1.6179,-0.069 2.7619,0.043 3.2141,7.8337 0.1444,2.4919 1.4374,4.393 3.3018,4.0822 3.0973,-0.5163 2.2318,-10.4552 -1.2299,-14.1246 -0.746,-0.7907 -2.1848,-1.2448 -3.6637,-1.2627 h -5e-4 z m -12.0737,2.7688 c -1.4792,0 -1.7234,1.0908 -1.6096,7.1963 0.089,4.8351 0.2777,5.5228 1.5123,5.5228 1.5937,0 3.2073,-0.3818 3.1396,-4.0372 -0.1426,-7.8588 -2.0166,-8.6819 -3.0423,-8.6819 z m -9.7606,25.5703 c -2.3321,-0.011 -4.8532,0.1818 -6.4843,0.423 -2.5755,0.381 -2.6711,1.978 -2.6711,8.3328 0,3.943 0.51,6.8356 1.2033,7.5291 0,1.1641 12.9143,2.0101 14.7909,-0.2511 1.5103,-1.8201 0.4452,-14.0328 -1.4867,-15.2584 -0.8767,-0.5575 -3.0201,-0.7663 -5.3521,-0.7754 z m 36.9988,0.09 c -0.4879,-0.011 -1.0035,0.011 -1.5456,0.025 -7.6291,0.273 -8.6168,-0.6872 -8.5168,6.4576 l 0.5152,9.4165 c 0.025,0.4575 0.365,0.9553 0.8525,0.9661 l 6.6794,0.1483 c 7.7099,0.1708 7.9584,-1.1623 7.6486,-10.7293 -0.1723,-5.3207 -2.2186,-6.2412 -5.6333,-6.2841 z m -52.0993,0.096 c -0.5587,-0.015 -1.211,-0.011 -1.9737,0.011 -3.507,0.081 -10.0079,0.032 -10.7615,0.5224 -1.4632,0.9511 -1.0109,14.4133 0.3979,15.8169 0.4001,0.3984 3.4782,0.5261 7.0284,0.5002 l 7.697,-0.057 c 2.0545,-0.5884 2.1309,-4.7178 1.3278,-11.5579 -0.4796,-4.086 0.1949,-5.1296 -3.7159,-5.2321 z m -19.8959,0.033 -9.6505,0.1129 c -1.4232,0.016 -2.3715,0.022 -2.3715,2.2053 v 5.6094 c 0,7.4148 0.047,8.2829 2.1404,8.6858 1.2275,0.2359 5.9525,0.3381 8.8113,0.2467 6.3802,-0.2052 6.2798,-0.3102 5.8323,-9.4704 l -0.2061,-4.2123 c -0.094,-1.6246 -0.3365,-3.2602 -4.5559,-3.1774 z m 80.4458,0.012 c -0.5911,-0.1239 -1.2083,0.3067 -1.2083,0.8558 v 6.4127 c 0,3.5268 0.2713,7.1184 0.6024,7.9815 0.4606,1.1997 2.0654,1.5695 6.8228,1.5695 8.0132,0 7.3328,-0.5877 7.1123,-8.9286 l -0.1612,-6.1018 c -0.043,-1.6101 -0.4337,-1.8019 -1.819,-1.7869 l -5.8141,0.061 z m -27.8968,0.047 c -8.9509,0.02 -8.802,0.024 -8.7052,8.2833 0.048,4.1556 0.1043,7.3077 0.7014,7.7447 1.6706,1.2221 3.1998,0.8984 7.193,0.8876 5.7858,-0.016 7.8869,-0.2519 8.3594,-0.7969 0.6423,-1.0215 0.5544,-4.1267 0.24,-8.9047 l -0.3629,-5.5167 c -0.09,-1.3818 -3.7134,-1.7081 -7.4257,-1.6973 z" transform="translate(-52.1229,-98.425062)"/>
</svg>
