<svg width="171.95599mm" height="132.73103mm" viewBox="0 0 171.95599 132.73103" xmlns="http://www.w3.org/2000/svg">
    <path d="m 1547.6266,3310.7954 c -0.1359,0 -0.2736,0.01 -0.4134,0.037 -4.4744,0.875 -13.1397,16.816 -13.1397,16.816 0,0 -8.462,-14.79 -13.2917,-14.1066 -4.8297,0.6837 -4.652,23.242 -4.652,23.242 0,0 -14.347,-11.7027 -16.8682,-10.3901 -1.2216,0.6358 -0.4974,4.739 0.6827,9.0067 l -0.9746,-2.1637 c 0,0 -15.8775,1.0868 -21.346,3.328 -5.469,2.2413 -14.5544,8.2859 -14.378,13.7872 0.1765,5.5012 15.5249,17.7264 22.4932,17.183 6.9681,-0.5432 -17.6418,9.9156 -14.8192,19.3559 2.8226,9.4403 14.9952,17.1148 21.0814,19.9673 6.0865,2.8525 9.4384,3.3281 12.7021,2.1058 3.2635,-1.2227 21.2576,-18.9487 21.2576,-18.9487 0,0 -6.7922,12.9037 -3.7931,17.0465 2.999,4.1432 23.3746,6.5885 39.6927,-0.068 16.3182,-6.6558 26.6385,-15.7568 27.3441,-21.6654 0.7057,-5.9087 -2.1167,-9.9839 -2.1167,-9.9839 0,0 22.0516,-0.8148 28.0494,-5.1614 5.9982,-4.3465 12.6137,-8.2858 12.6137,-8.2858 l -4.9397,-3.4639 8.3793,-2.1735 c 0,0 2.823,-8.15 -5.1154,-13.9227 -7.9386,-5.7729 -23.2867,-9.9838 -30.4312,-9.2366 -5.7664,0.6028 -9.171,-0.2231 -10.3167,-0.5762 0.6967,-3.62 0.8712,-7.131 -0.9679,-7.7199 -4.0129,-1.2851 -13.1398,6.2068 -13.1398,6.2068 0,0 0.4617,-14.3551 -3.1962,-14.027 -3.6576,0.3281 -13.8498,7.9845 -13.8498,7.9845 0,0 -2.333,-14.0885 -6.5469,-14.1733 z m -4.5072,16.9359 c -0.01,0 -0.018,0.01 -0.027,0.01 0.01,0 0.018,-0.01 0.027,-0.01 z m -0.5741,0.2682 c -0.032,0.019 -0.064,0.038 -0.095,0.058 0.032,-0.02 0.063,-0.039 0.095,-0.058 z m -0.5679,0.4088 c -0.023,0.02 -0.045,0.041 -0.067,0.061 0.023,-0.02 0.044,-0.041 0.067,-0.061 z m 3.4545,1.3058 c -0.012,0.1208 -0.01,0.2358 0.024,0.3421 0.034,0.1056 0.099,0.2023 0.2119,0.2884 -0.1127,-0.086 -0.1782,-0.1829 -0.2119,-0.2884 -0.034,-0.1063 -0.036,-0.2212 -0.024,-0.3421 z m -4.609,0.012 c -0.032,0.047 -0.056,0.084 -0.082,0.1246 0.034,-0.054 0.036,-0.057 0.082,-0.1246 z m 4.8488,0.6217 c 0.1142,0.086 0.2765,0.161 0.5044,0.2222 0.2288,0.061 0.4362,0.088 0.6273,0.088 0.1912,2e-4 0.3659,-0.026 0.5292,-0.07 -0.1632,0.044 -0.3382,0.07 -0.5292,0.07 -0.1911,-3e-4 -0.3985,-0.027 -0.6273,-0.088 -0.228,-0.061 -0.3902,-0.1361 -0.5044,-0.2222 z m 10.341,0.056 c 0,0 -0.01,0 -0.012,0.01 0,0 0.01,0 0.012,-0.01 z m -8.2197,0.01 c -0.1451,0.071 -0.2967,0.1338 -0.4599,0.1778 0.1631,-0.044 0.3148,-0.1064 0.4599,-0.1778 z m 8.0104,0.123 c 0,0 0,0 -0.01,0 -0.6173,0.5082 -1.2561,1.1225 -1.9745,1.5937 -0.1797,0.1178 -0.364,0.227 -0.5545,0.323 -0.1905,0.096 -0.3869,0.1791 -0.5902,0.2455 -0.2032,0.066 -0.4132,0.1158 -0.6309,0.1447 -0.2178,0.029 -0.4434,0.037 -0.6775,0.021 -0.1171,-0.01 -0.2183,-0.026 -0.3054,-0.053 -0.085,-0.026 -0.1564,-0.062 -0.2165,-0.1039 0.06,0.042 0.1312,0.077 0.2165,0.1039 0.087,0.027 0.1883,0.045 0.3054,0.053 0.2341,0.016 0.4597,0.01 0.6775,-0.021 0.2177,-0.029 0.4277,-0.078 0.6309,-0.1447 0.2033,-0.066 0.3997,-0.1495 0.5902,-0.2455 0.1905,-0.096 0.3749,-0.2051 0.5545,-0.323 0.7184,-0.4713 1.3572,-1.086 1.9745,-1.5942 0,0 0,0 0.01,0 z m -5.1677,0.8274 c -0.029,0.1833 -0.056,0.3645 -0.066,0.5348 -0.01,0.1699 0,0.3288 0.038,0.4666 -0.04,-0.1379 -0.048,-0.2965 -0.038,-0.4666 0.01,-0.1701 0.037,-0.3516 0.066,-0.5348 z m -0.027,1.0045 c 0.02,0.067 0.048,0.129 0.085,0.185 -0.037,-0.056 -0.065,-0.118 -0.085,-0.185 z m 6.3298,0.1861 c 0.069,0.2574 0.1513,0.5118 0.2548,0.7467 0.1552,0.3523 0.3586,0.6606 0.6392,0.8687 0.094,0.069 0.1957,0.1275 0.3075,0.1726 -0.1118,-0.045 -0.2139,-0.1032 -0.3075,-0.1726 -0.2806,-0.2081 -0.484,-0.5164 -0.6392,-0.8687 -0.1035,-0.2348 -0.1857,-0.4893 -0.2548,-0.7467 z m -6.2404,0 c 0.037,0.055 0.084,0.1042 0.1426,0.1463 -0.058,-0.042 -0.105,-0.091 -0.1426,-0.1463 z m -15.0482,0.6605 c 0.1161,0.599 0.2543,1.3574 0.3922,2.3285 -0.1379,-0.9709 -0.2761,-1.7296 -0.3922,-2.3285 z m 24.8305,3.1212 c 0,0 0,0.01 -0.01,0.01 0,0 0,-0.01 0.01,-0.01 z m -0.3772,0.5199 c 0,0 0,0 0,0.01 -0.3406,0.3852 -0.7024,0.846 -1.065,1.3208 0.3624,-0.4746 0.724,-0.9358 1.0645,-1.3208 0,0 0,0 0.01,-0.01 z m -12.5781,0.8242 c 0.2001,0 0.3753,0.048 0.5287,0.123 0.1023,0.05 0.1947,0.1146 0.2785,0.1902 0.084,0.076 0.1592,0.1628 0.2264,0.2584 0.1343,0.1911 0.2367,0.4165 0.3152,0.6552 0.079,0.2387 0.1329,0.4905 0.17,0.7338 0.037,0.2426 0.057,0.4769 0.068,0.6816 -0.01,-0.2048 -0.031,-0.4388 -0.068,-0.6816 -0.037,-0.2433 -0.091,-0.4951 -0.17,-0.7338 -0.079,-0.2387 -0.1809,-0.4641 -0.3152,-0.6552 -0.067,-0.096 -0.1426,-0.1828 -0.2264,-0.2584 -0.084,-0.076 -0.1762,-0.1399 -0.2785,-0.1902 -0.2044,-0.1006 -0.4478,-0.1453 -0.7369,-0.1126 0.072,-0.01 0.1416,-0.012 0.2082,-0.01 z m -0.2103,0.011 c -0.1442,0.016 -0.2997,0.052 -0.4677,0.1095 -0.1685,0.058 -0.3493,0.1374 -0.5436,0.2419 -0.3883,0.2088 -0.7557,0.4507 -1.1007,0.7136 0.3452,-0.2631 0.7122,-0.5046 1.1007,-0.7136 0.1943,-0.1045 0.3751,-0.1841 0.5436,-0.2419 0.1678,-0.057 0.3236,-0.093 0.4677,-0.1095 z m 11.7182,0.4924 c -0.3662,0.4795 -0.7323,0.9711 -1.0785,1.4149 0.346,-0.4437 0.7125,-0.9356 1.0785,-1.4149 z m -13.8307,0.5731 c -0.3452,0.2631 -0.6681,0.5471 -0.9684,0.8413 -0.3004,0.2943 -0.578,0.5988 -0.832,0.9013 -0.2494,0.2969 -0.4752,0.5913 -0.6785,0.8743 0.2033,-0.283 0.4292,-0.5774 0.6785,-0.8743 0.254,-0.3026 0.5316,-0.607 0.832,-0.9013 0.3002,-0.2941 0.6234,-0.5783 0.9684,-0.8413 z m 38.176,1.1442 5.826,0.3296 -0.078,0.3251 c -1.1449,-1.138 -6.1877,0.6811 -6.1877,0.6811 0,0 0.2678,-0.8223 0.4398,-1.3358 z m -34.2667,0.4237 c 0.021,0.4097 0,0.7 0,0.7007 0,0 0.018,-0.2909 0,-0.7007 z m -6.4063,1.0744 c -0.4088,0.5716 -0.7234,1.0929 -0.9343,1.4701 -0.2094,0.3745 -0.3139,0.6005 -0.3168,0.6067 0.01,-0.012 0.1101,-0.2371 0.3168,-0.6067 0.2111,-0.3775 0.525,-0.898 0.9343,-1.4701 z m 44.9605,5.2616 -0.9312,3.8928 c 0,0 10.4082,-4.3461 11.8195,-1.5616 0,0.01 0,0.018 0.01,0.025 -2.9546,-0.2726 -12.9223,2.1456 -12.9223,2.1456 0,0 1.0495,-2.1513 2.0283,-4.5016 z m -96.6018,1.4733 7.6223,1.6501 c -3.6173,-0.7158 -7.1617,-1.3323 -7.3975,-1.0212 -0.269,0.3551 -0.291,2.1123 -0.093,3.9481 -0.5963,-3.236 -0.1318,-4.577 -0.1318,-4.577 z m 105.547,7.2673 c -2.6178,4.7529 -7.0829,10.39 -9.788,11.4525 -4.2097,1.6536 -15.7902,5.0769 -16.4073,5.2591 -0.012,-0.021 -0.1193,-0.2242 -0.1193,-0.2242 0,0 13.4945,-3.0349 20.2065,-9.5974 2.6252,-2.5669 4.6437,-4.9038 6.1081,-6.89 z m -104.2442,1.6221 c 0.9964,1.5554 5.0436,6.4396 9.3358,9.7446 -3.4331,-0.9499 -6.3745,-2.4907 -7.4962,-5.0079 -0.8042,-1.8047 -1.3692,-3.3323 -1.8396,-4.7367 z m 23.3303,13.4612 c 0.01,0 0.1664,0.017 0.1664,0.017 0,0 -0.5628,0.4871 -0.8547,0.7327 0.302,-0.3289 0.4386,-0.4777 0.6883,-0.7493 z m 55.1083,2.3601 c 1.8905,1.5525 9.6157,8.2044 5.7857,10.8525 -4.322,2.9882 -9.438,2.1731 -12.437,0.9504 -0.4876,-0.1988 -1.1904,-0.5345 -1.8448,-0.8393 4.6274,0.9736 12.3031,0.6941 13.2069,0.1664 0.8933,-0.5218 -3.4802,-8.8306 -4.7108,-11.13 z m -21.4892,2.1409 c 0,0 0.3272,0.2989 0.4455,0.4093 -0.1025,0.6896 -0.3687,2.3857 -0.957,4.9951 0.3036,-2.6986 0.5115,-5.4044 0.5115,-5.4044 z m -18.6086,1.3674 c 0,0 0.017,0.059 0.018,0.06 -0.048,0.028 -0.2524,0.1396 -0.3235,0.1799 0.033,-0.027 0.306,-0.2398 0.306,-0.2398 z m 21.8183,1.464 c 1.1973,1.0173 2.4952,2.0696 3.9119,3.0835 -0.9683,-0.5027 -2.3394,-1.2108 -2.3394,-1.2108 z m -46.0349,2.9548 c -0.7611,1.4093 -1.1764,2.7619 -0.9261,3.8933 0.4588,2.074 4.078,1.6082 8.2135,0.3153 -2.9757,1.2534 -5.5489,2.1165 -6.7862,1.9415 -3.8824,-0.5491 -2.6456,-3.408 -0.5012,-6.1501 z m 39.3722,8.5732 c -0.8942,1.7261 -1.9402,2.997 -3.1434,3.3171 -0.3888,0.1034 -0.7532,0.1498 -1.107,0.1715 1.7645,-0.5564 3.1771,-1.9688 4.2504,-3.4886 z m 52.5353,17.2909 c -13.3263,-0.1109 -23.0816,6.7909 -22.7976,8.7194 l 0.7406,2.3476 c 0,0 -5.5849,0.7678 -7.4084,6.3624 -1.8238,5.5946 6.6393,13.5804 22.7955,14.3702 16.156,0.7898 33.3095,-4.0587 35.0475,-11.4525 1.7381,-7.3935 -8.6909,-18.2095 -24.1344,-20.0743 -1.4479,-0.1749 -2.8647,-0.2613 -4.2432,-0.2728 z" fill="#fff" paint-order="fill markers stroke" transform="translate(-81.491655,-57.6793) translate(-1380.1563,-3251.1736)"/>
    <path d="m 1584.0942,3440.2605 c -11.388,-2.9855 -17.5389,-8.4469 -17.5389,-15.5725 0,-4.5995 1.1305,-6.0858 5.735,-7.5405 0.9743,-0.3077 1.0911,-0.6699 0.5454,-1.6897 -0.9139,-1.708 1.0388,-3.5665 6.2574,-5.9558 7.1913,-3.2922 14.5788,-4.7319 22.3516,-4.3557 8.2261,0.3982 12.5863,1.8694 18.0635,6.0949 6.6577,5.1363 9.9513,11.0666 8.9908,16.1874 -1.0462,5.5753 -9.011,10.9059 -19.632,13.1387 -6.9924,1.47 -18.541,1.327 -24.7728,-0.3068 z m 24.9305,-5.1987 c 6.1682,-1.3067 13.108,-4.5679 14.6147,-6.8675 2.5319,-3.8643 -0.3542,-10.8566 -6.1177,-14.8219 -5.1591,-3.5496 -10.4973,-4.9358 -19.0081,-4.9358 -7.9073,0 -11.9087,0.8443 -17.3885,3.6689 -1.6856,0.8686 -3.1751,1.9104 -3.3099,2.315 -0.147,0.4412 1.5774,0.9222 4.3096,1.2022 4.8541,0.4973 17.325,2.9203 18.3772,3.5706 0.3468,0.2142 0.6306,0.7314 0.6306,1.1492 0,0.5406 -3.654,0.6274 -12.6803,0.3014 -15.3877,-0.556 -17.0563,-0.1966 -17.0563,3.6726 0,1.5685 0.5571,3.3135 1.3996,4.3848 1.6646,2.1159 7.1516,4.8951 12.4314,6.2966 4.9804,1.322 17.698,1.3561 23.7977,0.065 z m -79.8801,-22.4849 c -7.0525,-1.1928 -10.0228,-4.4896 -9.4465,-10.4852 l 0.3218,-3.3494 -5.0209,5.4044 c -2.9583,3.1844 -6.2047,5.9383 -7.9025,6.704 -2.5916,1.1688 -3.3115,1.2118 -7.1531,0.4299 -10.0084,-2.0371 -18.2817,-5.9469 -24.7077,-11.6765 -5.9895,-5.3402 -7.7912,-12.3153 -4.7853,-18.5247 1.3498,-2.7884 7.4527,-9.1327 11.0448,-11.4816 l 1.729,-1.1306 -2.0747,-0.5189 c -1.1412,-0.2854 -4.5642,-1.6666 -7.607,-3.0692 -6.3352,-2.9203 -11.0509,-7.4169 -11.764,-11.2177 -1.3371,-7.1275 7.7464,-15.6649 20.3965,-19.1704 5.0636,-1.4032 12.4596,-1.944 12.4596,-0.9113 0,0.2868 -3.323,1.3727 -7.3847,2.413 -9.3911,2.4054 -15.2551,5.1548 -18.8114,8.8192 -6.2747,6.4656 -3.634,12.3927 7.8702,17.6649 5.2636,2.4123 13.1965,4.1798 15.4909,3.4517 0.7916,-0.2514 1.7927,-0.2386 2.2243,0.028 0.4502,0.2782 -1.2444,1.4315 -3.9701,2.7028 -11.5989,5.4098 -18.1113,13.9714 -15.7814,20.7483 1.0973,3.1923 3.5203,5.8016 9.1184,9.8197 4.6051,3.3054 16.435,8.5176 19.3317,8.5176 1.315,0 4.4095,-2.5809 12.522,-10.4442 10.9544,-10.6179 13.6725,-12.9021 14.4396,-12.135 0.2362,0.2362 -0.9133,3.3125 -2.5542,6.8363 -3.5261,7.5716 -4.256,12.0334 -2.2636,13.8365 1.8997,1.7192 7.5122,2.6017 16.369,2.5738 15.1693,-0.047 25.5491,-3.2752 35.6575,-11.0874 11.473,-8.8669 13.2981,-16.4855 5.6818,-23.7196 -2.0393,-1.9369 -2.1687,-1.9634 -5.5957,-1.1412 -1.9294,0.4628 -3.5081,0.9332 -3.5081,1.0452 0,0.1122 0.9329,1.2024 2.0734,2.4232 2.1777,2.3315 3.4367,5.7172 2.9048,7.8124 -0.5238,2.0634 -5.5353,4.1635 -9.9508,4.1699 -6.4584,0 -14.2189,-4.5123 -17.5028,-10.1988 -0.5148,-0.8917 -0.6947,-0.08 -0.7038,3.1782 -0.02,6.9565 -3.8195,13.0975 -9.0941,14.6972 -3.2707,0.9917 -9.0309,-6.7956 -9.7508,-13.182 -0.1862,-1.6598 -0.5115,-3.0179 -0.7209,-3.0179 -0.209,0 -2.2691,1.224 -4.5778,2.7201 -7.2244,4.6815 -19.0541,8.4482 -21.844,6.9551 -2.9122,-1.5587 -1.1438,-6.8508 4.2681,-12.7723 l 3.3468,-3.6618 -3.0731,-0.4608 c -4.3002,-0.645 -10.9459,-4.131 -13.5675,-7.117 -4.7612,-5.4226 -6.8193,-13.1865 -4.4082,-16.6289 1.3521,-1.9303 3.6714,-1.9704 8.9509,-0.1549 2.211,0.7608 4.2589,1.3832 4.5509,1.3832 0.2917,0 -0.6625,-1.7894 -2.1207,-3.9765 -2.8548,-4.2816 -5.5422,-11.3468 -5.5422,-14.5701 0,-8.6053 5.3035,-9.0327 14.3111,-1.1529 l 3.5064,3.0672 -0.019,-6.0335 c -0.02,-8.9995 2.4599,-14.6777 6.3991,-14.6777 1.8501,0 6.6622,4.4272 11.1303,10.2396 l 1.758,2.2868 2.5344,-5.128 c 2.7268,-5.5172 7.7337,-10.8562 10.1813,-10.8562 4.2792,0 8.2796,5.2846 8.2796,10.9374 0,1.5915 0.1961,2.8936 0.4349,2.8936 0.2393,0 1.6257,-1.0757 3.081,-2.3905 3.4575,-3.1237 7.8958,-5.3522 10.1263,-5.0845 2.8811,0.346 4.6369,3.3949 4.5323,7.8703 -0.049,2.1091 0.1195,3.7226 0.3765,3.5861 7.1574,-3.8116 9.803,-4.3783 12.08,-2.5871 1.5672,1.2328 1.8717,2.009 1.8717,4.7699 0,1.8136 -0.4357,4.7457 -0.9683,6.5154 l -0.9684,3.2176 1.61,-0.404 c 2.4631,-0.6182 4.4769,0.2898 4.4693,2.015 0,0.8302 -0.7845,3.1801 -1.7353,5.2222 l -1.7284,3.7129 1.5624,-0.4409 c 5.3068,-1.4974 7.995,-1.8161 9.7357,-1.1543 2.4447,0.9294 2.3418,2.0912 -0.6367,7.1925 -3.6615,6.2713 -6.688,9.6934 -11.2918,12.7677 l -4.1033,2.7401 1.9549,1.8728 1.9549,1.8729 6.4694,-0.7702 c 3.558,-0.4236 8.0293,-1.2157 9.9362,-1.7606 8.766,-2.5038 21.1772,-8.836 19.8738,-10.1393 -0.3289,-0.3289 -4.5794,-2.0023 -9.4456,-3.7185 -10.5951,-3.7365 -11.8717,-4.3571 -10.9202,-5.3088 0.643,-0.6429 19.6417,1.4414 24.1682,2.6512 1.4536,0.3886 1.5558,0.1998 1.5558,-2.8678 0,-4.4438 -2.0104,-7.484 -7.1434,-10.8017 -6.8693,-4.4396 -18.3447,-7.4747 -28.471,-7.5295 -3.8494,-0.022 -4.5737,-0.1824 -3.5365,-0.7838 2.1835,-1.2681 18.5264,-0.2904 24.6237,1.4733 10.2235,2.9572 16.7887,7.8198 18.5657,13.7509 1.8113,6.0459 0.3804,10.471 -3.386,10.471 h -2.0354 l 1.3829,1.3833 c 0.7609,0.7605 1.3832,1.6597 1.3832,1.9979 0,2.3719 -9.5036,8.2537 -19.3036,11.9473 -5.4248,2.0443 -6.6368,2.2406 -14.0297,2.2718 -7.9254,0.033 -8.0734,0.063 -7.1977,1.4173 1.5462,2.3915 1.8958,5.2188 1.1123,8.9937 -1.9195,9.2463 -12.6935,17.9135 -29.3832,23.6381 -7.3285,2.5135 -23.9184,3.6883 -32.2308,2.2822 z m 14.4803,-23.8304 c 2.3104,-2.6313 3.5572,-6.2074 3.5632,-10.2191 v -2.5934 l -3.285,-0.041 c -1.8067,-0.024 -4.7901,-0.2888 -6.6298,-0.591 -4.2508,-0.6989 -4.8162,0.3479 -2.1193,3.9241 2.5319,3.3573 3.538,4.1272 6.6745,5.1071 3.0092,0.9399 3.311,1.7676 0.868,2.3808 -1.0878,0.273 -2.7485,-0.072 -4.4949,-0.9372 -1.5234,-0.7538 -2.7697,-1.1598 -2.7697,-0.902 0,1.0275 4.3271,6.2733 5.1747,6.2733 0.4982,0 1.8545,-1.0805 3.0143,-2.4015 z m -20.0705,-10.5634 c 4.8062,-2.4296 6.1249,-3.3714 5.1867,-3.7043 -0.6921,-0.2457 -3.0356,-1.1325 -5.2079,-1.9711 -4.6829,-1.8076 -6.0998,-1.5263 -9.7961,1.9456 -2.8715,2.697 -6.6548,8.1137 -6.6548,9.5278 0,1.2271 8.4786,-1.7572 16.4721,-5.798 z m 50.3305,4.8902 c 0.7429,-0.2852 0.6686,-0.8629 -0.3706,-2.8834 -1.8585,-3.6123 -4.7639,-6.0265 -8.2812,-6.8818 -2.7144,-0.6598 -3.4178,-0.5558 -6.3739,0.9421 -1.8276,0.9261 -3.9555,1.6838 -4.7287,1.6838 -1.8091,0 -1.7741,0.4994 0.1489,2.1524 5.6215,4.8297 14.277,7.0313 19.6046,4.9869 z m -29.5661,-11.6427 c 0.3683,-0.3683 -2.3314,-9.2805 -4.8107,-15.8805 -3.1214,-8.3092 -6.9538,-12.6488 -9.3869,-10.6292 -0.8866,0.7357 -1.0199,2.1191 -0.7537,7.8278 0.3933,8.4358 2.1214,14.2698 5.1908,17.5243 2.168,2.2987 2.3763,2.3661 5.8723,1.9024 1.9934,-0.2645 3.7432,-0.5995 3.8882,-0.7448 z m 15.1488,-2.5314 c 2.7581,-1.1467 5.624,-2.8598 6.3688,-3.8066 2.6807,-3.408 5.1896,-12.7606 6.1041,-18.5222 1.2194,-7.6825 -1.2827,-4.0747 -3.0547,-2.6617 -7.2107,5.7496 -9.8773,9.6201 -14.1292,18.6297 -2.2588,4.7864 -4.1069,8.8586 -4.1069,9.0494 0,0.5841 3.5522,-0.499 8.8179,-2.6886 z m 15.0228,-0.019 c 4.5349,-1.1395 10.2998,-4.4055 14.4156,-8.1674 3.658,-3.3433 8.7688,-9.5915 8.7688,-10.7204 0,-0.5985 -4.6993,0.063 -8.5245,1.2009 -1.8395,0.5469 -3.2391,1.6449 -4.5905,3.6004 -2.5046,3.6252 -9.91,10.7054 -13.6824,13.0818 -4.4753,2.8191 -4.0633,2.9336 3.613,1.0047 z m -46.9902,-1.0723 c -0.262,-0.6658 -0.895,-3.3811 -1.4065,-6.0341 -0.5116,-2.6533 -1.3147,-4.9524 -1.7848,-5.109 -0.4701,-0.1568 -3.0601,-2.1984 -5.7557,-4.5374 -2.6955,-2.3389 -6.1386,-5.124 -7.5822,-6.2776 -1.2213,-0.9761 -2.6866,-2.2899 -2.173,0.3713 2.0071,10.3977 7.947,18.6772 15.0489,21.7638 3.127,1.3591 4.2368,1.3051 3.6533,-0.1765 z m 22.0574,-3.6307 c 0.6547,-1.7115 2.374,-5.3198 3.8209,-8.0183 2.5657,-4.7855 2.6137,-5.0071 1.9486,-8.9901 -0.375,-2.246 -0.9474,-4.3685 -1.2723,-4.7165 -0.8192,-0.8775 -5.7583,4.6722 -8.0519,9.0476 l -1.8732,3.5738 1.146,4.7247 c 0.6303,2.5985 1.3366,5.6254 1.5694,6.7263 0.5018,2.3734 1.1066,1.8501 2.7125,-2.3475 z m -36.6004,0.2009 c -1.3677,-1.7912 -3.3191,-5.0706 -4.3367,-7.2871 -1.4078,-3.0674 -2.2671,-4.1108 -3.5957,-4.3665 -0.9604,-0.1843 -4.2178,-1.0985 -7.2389,-2.0305 -3.021,-0.9319 -5.6258,-1.5616 -5.7882,-1.399 -0.7627,0.7625 0.8359,5.45 2.8795,8.4441 3.798,5.5647 11.3822,9.7273 17.9418,9.8477 l 2.6251,0.049 z m 72.4269,-17.5157 c 1.418,-2.4117 2.4221,-4.5403 2.232,-4.7305 -0.1902,-0.1902 -2.7505,0.8268 -5.6898,2.26 l -5.3437,2.6058 -1.1341,5.6508 c -0.6239,3.1077 -1.3489,6.273 -1.6115,7.0336 -0.8681,2.5162 8.9197,-8.3504 11.5471,-12.8197 z m -59.3537,-2.6513 c 0.075,-5.0014 0.023,-5.1549 -2.6453,-8.1256 -1.4965,-1.6654 -3.1702,-3.0277 -3.7193,-3.0277 -1.7579,0 -0.6146,6.6859 2.2923,13.4067 2.4165,5.5868 2.719,5.9953 3.3276,4.4949 0.3682,-0.9075 0.7032,-3.9445 0.7447,-6.7483 z m 20.7088,0.1569 c 2.0748,-2.4574 2.2328,-3.2049 0.91,-4.3026 -0.7234,-0.6003 -1.4132,-0.09 -3.1549,2.3357 -1.2261,1.7071 -1.7015,3.0686 -2.6649,3.1041 -0.6654,0.024 -2.0871,-1.7323 -4.1053,-3.8497 -2.9441,-3.0886 -4.0364,-3.8063 -5.5261,-3.6307 -1.3437,0.1588 -2.1064,0.8348 -2.7615,2.4483 l -0.2022,1.9584 1.264,-0.1228 c 3.1643,-0.3075 7.4415,1.9915 9.9404,6.0114 l 2.1278,3.4229 1.1684,-2.6004 c 0.6427,-1.43 1.9947,-3.5787 3.0043,-4.7746 z m 19.7621,-3.358 c 0.072,-1.0456 -2.599,-5.1865 -3.3474,-5.1865 -0.3605,0 -1.7847,1.3781 -3.1649,3.0623 -2.4249,2.9595 -2.4814,3.1545 -1.6856,5.8111 l 0.8235,2.7489 3.663,-2.872 c 2.0146,-1.5798 3.6847,-3.1833 3.7114,-3.5638 z m -59.2263,1.038 c 0.4644,2e-4 2.8338,0.9415 5.2649,2.0916 2.4312,1.1501 4.5197,1.9921 4.6408,1.8709 0.1216,-0.1216 -0.444,-2.024 -1.2562,-4.2281 -1.1818,-3.2087 -2.3591,-4.7884 -5.9037,-7.9223 -6.7191,-5.941 -8.8348,-6.8435 -9.5319,-4.0664 -0.5373,2.1404 0.7555,7.589 2.9749,12.5385 l 1.8332,4.0885 0.5666,-2.1866 c 0.3117,-1.2027 0.9469,-2.1865 1.4114,-2.1861 z m 40.2335,-5.5329 c 0.9019,0 2.0499,0.6882 2.6332,1.5786 0.7593,1.1585 1.7596,1.6074 3.7587,1.6872 2.3166,0.093 2.8979,-0.1862 3.8858,-1.8582 1.4829,-2.5101 1.4604,-2.7909 -0.2211,-2.7909 -1.0877,0 -1.3831,-0.461 -1.3831,-2.1592 0,-1.8987 -0.1334,-2.0489 -1.1037,-1.2434 -0.963,0.7994 -1.0733,0.7091 -0.8645,-0.709 0.5491,-3.7284 4.7345,-3.3011 4.7345,0.4834 0,1.6025 0.1881,1.704 2.4666,1.3343 1.3568,-0.2201 3.2148,-0.058 4.1288,0.357 2.7432,1.2499 3.4802,-0.055 3.6769,-6.5048 0.1275,-4.1758 -0.1019,-6.1092 -0.8394,-7.1121 -1.0112,-1.3726 -1.0242,-1.3724 -4.0135,0.086 -1.6495,0.8051 -4.7023,2.7476 -6.7839,4.3164 -2.0819,1.5687 -3.989,2.8524 -4.2384,2.8524 -0.5904,0 -1.6851,-2.9471 -2.672,-7.1929 -1.0495,-4.5153 -2.5713,-7.3298 -3.9635,-7.3298 -1.8221,0 -6.5611,5.4739 -9.3726,10.8256 -2.9189,5.5564 -3.0632,6.1002 -1.4585,5.4842 0.6242,-0.2395 1.8691,0.045 2.7662,0.6334 1.3952,0.9143 1.6314,0.9237 1.6314,0.066 0,-0.5517 0.8114,-1.6412 1.8029,-2.421 2.0798,-1.6362 4.421,-0.9473 4.421,1.3011 0,1.706 -1.1887,2.4219 -2.38,1.4331 -0.7223,-0.5994 -1.2293,-0.4101 -2.2173,0.8284 -0.8664,1.086 -1.8962,1.5553 -3.1824,1.4506 -2.8547,-0.2327 -2.5461,2.5874 0.6914,6.3231 l 2.5934,2.9924 1.952,-2.3563 c 1.1917,-1.4384 2.5748,-2.3563 3.5511,-2.3563 z m 3.1412,-4.5125 c 0,-0.9025 -0.3951,-1.0708 -1.729,-0.736 -1.226,0.3077 -1.7288,0.1529 -1.7288,-0.5318 0,-1.4536 1.7968,-2.653 3.5927,-2.3984 1.2482,0.1764 1.5939,0.6633 1.5939,2.2429 0,1.1093 -0.3889,2.1466 -0.8645,2.3051 -0.4754,0.1588 -0.8643,-0.2383 -0.8643,-0.8818 z m 25.5931,4.8271 c 0.4696,-2.4893 0.6913,-4.6886 0.4927,-4.8874 -0.5579,-0.5577 -7.432,3.1231 -7.8456,4.201 -0.6837,1.7818 0.9268,3.675 2.8187,3.3136 1.1891,-0.2274 1.8813,0.022 2.1732,0.7827 0.8109,2.1134 1.509,1.1052 2.361,-3.4099 z m 5.5944,0 c 1.7413,-5.617 2.3062,-9.7316 1.4118,-10.2845 -0.4001,-0.2472 -1.8758,0.03 -3.2792,0.6168 -2.4327,1.0164 -2.4974,1.1263 -1.3839,2.3566 1.5637,1.7278 2.0545,5.3022 1.2265,8.9319 -1.0304,4.5174 0.5023,3.2906 2.0248,-1.6208 z m -50.7914,-2.2189 c 1.9025,-0.2689 2.2157,-0.6169 2.4631,-2.7362 0.2133,-1.8267 -0.036,-2.6233 -1.004,-3.217 -0.7081,-0.434 -3.3031,-3.3263 -5.7666,-6.4274 -2.4637,-3.1011 -4.9548,-5.821 -5.5363,-6.044 -0.7402,-0.2841 -1.3636,0.3287 -2.0809,2.0456 -0.9498,2.2729 -2.5865,9.4379 -2.1876,9.5759 2.7133,0.9385 7.429,4.1676 8.4747,5.803 0.9093,1.4218 1.7386,2.0165 2.4204,1.7357 0.5706,-0.2351 2.0183,-0.566 3.2172,-0.7356 z" transform="translate(-81.491655,-57.6793) translate(-1380.1563,-3251.1736)"/>
</svg>
