<svg width="363.41818mm" height="294.46161mm" viewBox="0 0 363.41818 294.46161" xmlns="http://www.w3.org/2000/svg">
    <path d="m 2157.3848,1859.7284 c -1.5449,0.045 -2.8302,0.2047 -3.5993,0.5131 -3.076,1.2337 -18.557,12.067 -18.557,12.067 0,0 -8.2589,3.8516 -9.5297,5.8379 -1.2704,1.9859 -5.0823,21.2452 -5.0823,21.2452 0,0 -17.12,5.5667 -20.8649,8.0341 -3.745,2.4676 -12.5723,9.9306 -15.1469,15.6482 -0.2039,0.4527 -0.3471,0.9468 -0.5064,1.4304 -0.01,-0.018 -0.2088,-0.461 -0.2088,-0.461 0,0 -10.4758,-5.8463 -12.7584,-6.2151 -2.2826,-0.3686 -2.8091,2.1599 -5.3258,2.7394 -2.5164,0.5791 -6.4374,1.2636 -8.4858,1.6324 -2.0483,0.3686 -14.6895,11.6402 -14.6895,11.6402 0,0 -6.145,-4.1611 -11.1197,-3.9502 -4.9747,0.2106 -12.6415,5.3196 -17.0894,10.0599 -4.4479,4.7402 -3.1015,22.648 -4.7403,25.5447 -1.6386,2.8969 -9.7152,10.3761 -9.7152,10.3761 0,0 -7.1398,-4.7403 -10.7683,-4.7403 -3.6285,0 -12.3486,6.0043 -12.3486,6.0043 0,0 -0.2927,-7.584 -0.9364,-9.6382 -0.6437,-2.0543 -3.9796,-7.6373 -3.9796,-7.6373 0,0 -3.7457,-10.6393 -6.3794,-13.6942 -2.6334,-3.0549 -11.8221,-4.0029 -11.8221,-4.0029 0,0 2e-4,-20.2255 -2.3409,-21.7526 -2.341,-1.5274 -9.6564,-0.3687 -16.7964,3.4762 -7.14,3.8449 -13.5191,17.8547 -13.5191,17.8547 0,0 -7.0817,0.1054 -10.7104,2.5281 -3.6285,2.4228 -5.7351,13.2203 -5.7351,13.2203 0,0 -9.8321,3.0021 -13.8704,7.4792 -4.0381,4.4767 -4.4481,13.1152 -4.8576,19.4882 -0.4096,6.3731 -2.1653,9.5854 -2.1653,9.5854 l -2.7507,2.6335 18.7699,0.3488 c -11.1683,0.017 -19.3152,0.1266 -20.8189,0.401 0,0 -0.8164,7.5003 -1.7725,23.3836 -9.8047,3.9596 -3.9415,43.0236 0.3163,65.8621 3.9481,26.7233 13.0959,47.7078 20.5936,54.1125 10.3591,8.8487 169.0485,-1.9165 242.396,8.6703 39.135,5.6487 57.763,-0.04 67.7597,-8.66 7.6667,-6.6107 11.8971,-25.0904 12.4427,-28.1621 3.3513,-18.8665 3.6037,-91.2384 3.6426,-109.6817 0.492,-0.3171 0.9627,-0.597 1.4614,-0.9741 1.672,-1.2639 2.0392,-7.0719 2.0392,-7.0719 0,0 4.2467,-2.6177 5.2498,-6.1386 1.003,-3.5208 -0.7693,-26.6616 -0.7023,-28.1962 0.067,-1.5346 -7.5235,-29.7913 -8.4263,-36.5017 -0.9026,-6.7106 -7.3221,-8.486 -9.4956,-9.5694 -2.1734,-1.0832 -10.533,-6.4998 -11.1683,-7.8238 -0.6352,-1.3242 -3.9118,-16.25 -4.9485,-18.0253 -1.0366,-1.7754 -12.6724,-4.2432 -14.779,-5.5671 -2.1066,-1.324 -5.9185,-12.3677 -5.9185,-12.3677 0,0 -3.0762,-7.8541 -6.2528,-9.2082 -2.3825,-1.0155 -9.3542,-1.9126 -13.9888,-1.7772 z m -23.1935,76.4088 0.7695,1.14 0.7762,2.6169 z m -3.8623,7.8047 c 0.086,0.1779 0.185,0.3772 0.185,0.3772 l 2.5741,8.1514 -2.9425,-5.8947 z m 8.3954,6.0244 0.4496,1.5146 3.6447,5.4767 22.4695,19.4696 3.6292,7.5339 -8.4445,-10.8438 -20.5971,-18.4769 z m 1.6314,17.0661 0.8439,1.5514 -0.1199,-0.1008 z m 4.2344,4.4034 c 5.1318,3.1604 16.0718,10.2125 18.6919,14.4704 1.1865,1.9284 2.1108,5.8048 2.8339,10.0139 h -0.1054 l -6.5071,-11.9414 z m -76.8599,11.4081 c 1.2976,0 2.6843,0.1504 4.162,0.4532 0.4586,0.094 0.8525,0.2613 1.218,0.4594 -1.2606,-0.4481 -4.1816,-1.1332 -8.7038,-0.09 -2.0088,0.4631 -3.7574,1.2759 -5.2462,2.1518 2.2577,-1.9168 5.0873,-2.9806 8.57,-2.974 z m 6.2032,1.4981 c 1.4777,1.3524 1.9466,3.6661 2.0232,5.8265 z m -151.6078,1.048 c 1.4902,0.088 2.8056,0.5962 3.9367,1.2459 -1.7649,-0.1216 -5.4274,-0.2918 -8.7881,0.01 0.9005,-0.4954 1.7969,-0.8965 2.664,-1.0841 0.7608,-0.1646 1.4913,-0.2132 2.1874,-0.1721 z m 24.5779,2.6479 c 1.9301,1.3025 2.1427,3.7881 1.9704,5.6777 -0.4866,-1.8675 -1.1428,-3.9893 -1.9704,-5.6777 z m 107.4347,1.5782 c -0.023,0.025 -0.1545,0.1602 -0.1545,0.1602 0,0 -0.1507,0.033 -0.156,0.035 0.1009,-0.054 0.2086,-0.1373 0.3105,-0.1948 z m 47.1465,0.5576 c 0.3401,0.8123 0.7177,1.6387 1.1979,2.481 -1.4978,-0.7086 -2.8142,-1.2781 -3.3807,-1.3333 -1.8961,-0.1844 -6.4053,2.6743 -6.4053,2.6743 0,0 -2.1265,-1.0833 -4.6374,-1.4754 -2.5106,-0.3919 -10.5813,2.6055 -10.5813,2.6055 l -0.261,-0.7514 c 1.7731,-0.7497 4.4297,-1.8495 6.3557,-2.4396 2.7506,-0.8427 9.4227,0.6325 9.4227,0.6325 l 7.4321,-2.1595 c 0,0 0.4431,-0.1196 0.8573,-0.2341 z m -73.4275,3.9734 c 0,0 6.7301,0.5792 9.8903,1.7378 0.048,0.018 0.096,0.017 0.1437,0.033 -3.3673,-0.4829 -8.1798,-1.5633 -11.1162,-0.6769 -1.1086,0.3346 -2.2569,1.2348 -3.3796,2.4101 l -1.5839,0.019 z m 13.6983,1.6872 c -0.161,0.076 -0.3202,0.1682 -0.4842,0.2139 -0.1795,0.05 -0.4505,0.049 -0.6991,0.06 0.4166,-0.061 0.8097,-0.1541 1.1833,-0.2739 z m -134.5675,0.4403 c -0.1302,0.2705 -0.248,0.5143 -0.3669,0.771 -0.071,-10e-5 -0.1654,0 -0.2366,0 0.029,-0.039 0.3824,-0.4835 0.6035,-0.7695 z m 42.3758,0.3705 1.7632,0.6754 c -0.8076,-0.01 -0.8187,-0.01 -1.6325,-0.018 -0.032,-0.1712 -0.064,-0.3293 -0.1307,-0.6573 z" fill="#fff" paint-order="fill markers stroke" transform="translate(-48.683361,38.629271) translate(-1823.1296,-1895.8841)"/>
    <path d="m 2185.5596,2141.3276 c -0.1789,-0.1776 -5.823,-0.7025 -12.5427,-1.1638 -19.0189,-1.306 -31.0204,-2.8884 -44.2982,-5.8412 -13.8381,-3.0773 -15.8398,-3.6412 -30.1871,-8.5024 -29.7689,-10.0869 -44.7347,-19.3267 -47.7392,-29.4743 -1.834,-6.1935 1.0991,-11.0463 11.9962,-19.8469 8.2949,-6.6993 18.9405,-17.456 20.7352,-20.9517 0.6906,-1.3447 1.2554,-4.0651 1.2554,-6.045 0,-9.5998 -9.8361,-16.8917 -33.2348,-24.6388 -18.6699,-6.181 -29.5841,-8.188 -50.4253,-9.2716 -7.5639,-0.3935 -16.159,-1.2426 -19.1004,-1.887 -7.3219,-1.6041 -22.9669,-1.6209 -23.5792,-0.025 -0.2418,0.6304 -1.1179,1.146 -1.9467,1.146 -0.8288,0 -1.6885,0.2939 -1.9105,0.6532 -0.2221,0.3591 2.5941,0.8824 6.2581,1.1629 21.8419,1.6717 53.8203,8.1609 63.0575,12.7963 5.9012,2.961 8.9279,6.8511 8.9279,11.4741 0,1.9926 -0.8012,3.2538 -4.0906,6.4399 -3.97,3.8453 -7.2214,5.6682 -23.0253,12.9093 -10.8385,4.9658 -12.7538,7.1768 -13.9984,16.1581 -1.5556,11.225 -7.9101,18.4981 -22.532,25.7895 -9.4264,4.7003 -16.1301,6.757 -27.6541,8.4842 -9.4868,1.422 -37.0192,3.1616 -38.8595,2.4553 -0.8676,-0.3327 -1.2704,-1.1402 -1.1142,-2.2335 0.2965,-2.0759 3.356,-2.7693 12.5071,-2.8348 8.7911,-0.063 25.5948,-1.4542 33.2557,-2.7536 12.5715,-2.1324 25.1345,-7.7395 32.817,-14.6467 4.6729,-4.2013 6.7199,-7.9868 7.6984,-14.2366 1.9202,-12.2635 5.5329,-15.9716 22.4574,-23.0502 3.7819,-1.5817 7.2027,-3.1709 7.6019,-3.5313 0.4072,-0.3675 -4.1043,-0.6551 -10.2761,-0.6551 -8.4091,0 -10.7909,-0.2101 -10.1067,-0.8951 0.5673,-0.5674 4.7508,-0.998 11.4221,-1.1758 14.4367,-0.385 15.0837,-0.5245 17.03,-3.6737 0.9212,-1.4905 1.4357,-3.2473 1.1835,-4.0416 -1.4493,-4.5665 -11.8033,-9.3829 -19.9109,-9.2622 -2.5213,0.037 -8.0223,0.022 -12.2243,-0.045 -9.5418,-0.143 -7.6446,-1.4032 2.2283,-1.481 3.7469,-0.03 6.6401,-0.2261 6.4294,-0.4367 -1.1229,-1.123 -24.2358,-5.0625 -36.1501,-6.1617 -11.0016,-1.0147 -18.3106,-1.1696 -36.673,-0.7767 -12.6131,0.2698 -26.543,0.7384 -30.9551,1.041 -8.9473,0.6138 -12.9884,0.4177 -12.9884,-0.6296 0,-0.3857 0.9455,-0.9082 2.1011,-1.1615 4.0742,-0.8926 4.0721,-0.8908 3.1198,-2.9811 -0.7974,-1.7499 -1.3102,-1.9357 -5.3436,-1.9357 -2.4538,0 -4.4615,-0.3007 -4.4615,-0.6686 0,-0.7123 3.6451,-1.6236 6.4943,-1.6236 1.3082,0 1.8313,-0.5613 2.1889,-2.3499 0.5666,-2.8327 3.9973,-6.1934 9.6011,-9.4057 7.0452,-4.0382 6.3461,-4.4547 -6.5526,-3.9037 -6.2423,0.2664 -12.2935,0.6025 -13.4471,0.7465 -1.1536,0.1452 -2.2761,-0.025 -2.4944,-0.3801 -0.2182,-0.3531 0.3787,-0.7527 1.3266,-0.8879 1.4299,-0.2036 1.8141,-0.8814 2.2551,-3.9793 0.3806,-2.6742 1.1937,-4.4172 2.865,-6.1414 2.125,-2.1926 2.2658,-2.6434 1.5764,-5.0474 -2.9585,-10.3154 1.8125,-19.1806 12.6919,-23.5826 l 5.2695,-2.1324 0.6456,-4.7471 c 0.5481,-4.0306 1.0935,-5.2179 3.6138,-7.8674 2.9136,-3.0626 3.0452,-3.1124 7.1096,-2.6929 l 4.1413,0.4273 2.0444,-4.5554 c 2.6606,-5.9286 9.9738,-13.7576 15.2735,-16.3503 2.2265,-1.0894 5.905,-2.1722 8.1742,-2.4066 3.6711,-0.3788 4.3888,-0.2058 6.5085,1.5789 3.2016,2.6941 4.3881,7.7302 3.6871,15.6503 l -0.5307,5.9949 3.4351,0.3872 c 5.1434,0.5797 9.3346,3.8805 11.2152,8.8331 0.844,2.2218 1.5342,4.7674 1.5342,5.6566 0,0.903 1.3315,2.846 3.0164,4.4015 3.5297,3.2585 4.6872,5.8876 4.8015,10.907 0.087,3.7917 0.553,4.3813 2.045,2.5837 0.4848,-0.5843 2.6362,-1.8173 4.7808,-2.7399 4.6875,-2.0165 7.8979,-1.6452 11.4227,1.3208 l 2.4268,2.0419 2.6337,-3.0275 c 4.3129,-4.9572 6.1676,-9.4373 7.1504,-17.2714 0.4933,-3.9316 1.5789,-8.9984 2.4127,-11.2593 3.0719,-8.3317 10.6723,-13.7321 20.2948,-14.4206 4.7199,-0.3376 5.3517,-0.2014 7.5299,1.6323 1.3078,1.1005 2.9152,2.0007 3.572,2.0007 0.6569,0 3.1128,-2.4046 5.4576,-5.3432 4.6678,-5.8503 7.3802,-7.7027 10.4261,-7.1205 1.3213,0.2527 3.0297,-0.2753 5.08,-1.5696 1.6992,-1.0726 3.8915,-2.1512 4.8718,-2.3968 2.3966,-0.6005 8.0272,1.468 11.4352,4.2009 l 2.7765,2.2266 2.1896,-3.4697 c 2.4767,-3.9245 10.0616,-10.3499 16.324,-13.8286 4.6005,-2.5553 14.5682,-6.316 16.7409,-6.316 1.1835,0 1.4307,-0.9463 1.8211,-6.9706 0.7177,-11.0785 4.9926,-17.8308 12.6185,-19.9313 3.3415,-0.9202 6.104,-2.7412 11.0561,-7.2877 5.3067,-4.872 10.57,-7.0551 17.448,-7.2371 6.6506,-0.1753 10.469,1.3134 12.8599,5.0159 0.8566,1.3265 2.2464,3.4433 3.0884,4.704 0.8422,1.2606 2.4024,4.5634 3.467,7.3391 2.3482,6.1228 4.1553,7.9297 9.1445,9.1444 5.3269,1.2969 7.6541,2.6033 9.7653,5.4813 3.4746,4.7366 5.213,10.439 5.9982,19.6743 0.4108,4.8324 0.9416,10.9621 1.1797,13.6213 0.4539,5.0706 -0.1617,6.6248 -2.2991,5.8044 -0.9602,-0.3684 -1.2743,-1.4563 -1.2757,-4.4181 -0.01,-8.2187 -2.8413,-24.0285 -5.2269,-29.1266 -2.4363,-5.2064 -4.2995,-6.6986 -9.6069,-7.6942 -4.5081,-0.8457 -7.99,-4.9807 -10.9851,-13.0457 -3.0241,-8.1429 -3.4622,-8.7714 -7.5773,-10.8706 -2.391,-1.22 -4.599,-1.6397 -8.6231,-1.6397 -6.235,0 -9.6011,1.3809 -15.6624,6.4255 -5.5402,4.6108 -7.1547,5.4897 -12.6424,6.8814 -2.7115,0.6876 -5.3749,1.8425 -5.9188,2.5667 -1.5737,2.096 -3.0876,8.4505 -3.59,15.0692 -0.6337,8.3493 -0.929,9.4638 -2.491,9.4023 -1.7696,-0.07 -12.6644,3.4877 -18.2643,5.964 -4.6221,2.0436 -10.5666,6.9947 -14.1923,11.8201 -2.2695,3.0206 -4.4048,11.378 -4.4048,17.2403 0,2.4269 -0.2836,3.3546 -0.955,3.1243 -0.6786,-0.2326 -0.9417,-2.4279 -0.9087,-7.582 l 0.046,-7.2543 -2.3384,-1.4366 c -1.286,-0.7901 -4.0309,-2.0475 -6.0996,-2.7944 l -3.7612,-1.3577 -4.1462,2.34 c -2.2805,1.2869 -5.0575,2.2812 -6.171,2.2095 -1.1138,-0.071 -2.4535,-0.093 -2.9772,-0.05 -0.524,0.045 -3.6846,2.8312 -7.0238,6.1931 -6.6394,6.6841 -8.267,7.2961 -11.8684,4.4633 -5.4929,-4.3208 -18.3868,0.9268 -21.7652,8.8581 -0.7276,1.7076 -1.9372,6.5357 -2.6883,10.729 -0.7509,4.1932 -2.0188,9.1484 -2.8174,11.0115 -2.2577,5.267 -6.7184,10.8449 -9.6534,12.0712 -2.5293,1.057 -2.7465,1.0119 -5.4041,-1.116 -1.5228,-1.2193 -3.728,-2.4552 -4.9003,-2.7467 -2.8206,-0.701 -8.4544,1.7942 -12.1249,5.3703 -1.5379,1.4983 -3.1394,2.5119 -3.559,2.2526 -0.4329,-0.2677 -0.7192,-3.5964 -0.6618,-7.6985 0.097,-6.9104 0.01,-7.3232 -2.0037,-9.4239 -1.3046,-1.3618 -2.8263,-4.5457 -4.0022,-8.3749 -2.5854,-8.4189 -5.0609,-10.5321 -12.9539,-11.058 l -3.0561,-0.2036 -0.4144,-9.1684 c -0.4338,-9.5872 -1.1975,-12.1662 -3.8532,-13.0091 -2.1009,-0.6668 -6.4597,0.1884 -9.8311,1.9294 -4.1675,2.1518 -10.5843,8.9209 -13.0081,13.7224 -2.9557,5.8552 -3.7466,6.4044 -8.3175,5.7757 -3.4197,-0.4703 -3.9827,-0.3205 -6.1751,1.6442 -1.8424,1.6508 -2.7654,3.5084 -3.905,7.8586 -0.8207,3.1332 -1.7832,5.9876 -2.1386,6.343 -0.3556,0.3556 -3.1899,1.9178 -6.2986,3.4714 -4.5536,2.2762 -6.1503,3.5677 -8.2165,6.6453 -2.5452,3.7916 -2.5607,3.8682 -2.0547,10.2031 0.3988,4.9925 0.2725,6.6568 -0.5799,7.6402 -1.4864,1.715 -2.1924,5.0439 -1.584,7.468 l 0.5042,2.0087 9.5728,-0.455 c 6.5008,-0.309 9.7852,-0.7697 10.2346,-1.4356 0.364,-0.5393 1.1324,-1.8403 1.7074,-2.8906 2.6479,-4.8378 7.994,-7.6403 14.5744,-7.6403 4.2751,0 7.6796,1.2003 9.448,3.3311 0.8291,0.999 1.4349,0.9119 4.9105,-0.7062 6.5281,-3.0394 10.4861,-2.2825 12.4335,2.3782 0.5947,1.4235 1.0814,3.6305 1.0814,4.9046 0,1.8424 0.3276,2.3165 1.6012,2.3165 2.4162,0 5.8799,2.338 6.7245,4.539 0.4126,1.0752 0.9725,3.7406 1.244,5.9226 l 0.4938,3.9674 3.9455,-0.4607 c 2.595,-0.3029 4.2921,-0.9487 4.9582,-1.8869 0.5572,-0.7844 3.3887,-3.0949 6.2923,-5.1339 l 5.2794,-3.7078 -11.2584,-0.5695 c -19.2095,-0.9718 -9.9055,-1.8585 22.3586,-2.1309 25.938,-0.2188 30.315,-0.4194 31.4891,-1.4446 3.824,-3.3379 9.0615,-3.8557 13.8348,-1.3678 3.2092,1.6728 5.1693,1.4105 5.8662,-0.785 0.6534,-2.0588 3.9937,-3.9521 7.2696,-4.1205 2.0771,-0.1062 3.8854,-0.9669 6.4489,-3.0676 6.2626,-5.1317 13.9064,-6.4409 17.9146,-3.0682 2.3021,1.9369 4.4271,7.2483 3.5002,8.748 -0.6145,0.994 -0.2774,0.9486 2.9491,-0.3996 3.5214,-1.4713 6.5934,-1.4562 8.7341,0.043 1.5368,1.0764 1.8592,1.0764 3.396,0 0.9339,-0.654 2.8249,-1.1895 4.2022,-1.1895 1.9402,0 2.504,-0.3229 2.504,-1.4343 0,-0.7889 -0.5156,-1.8625 -1.1459,-2.3858 -1.4266,-1.1838 -1.6058,-14.3061 -0.2679,-19.6192 0.709,-2.816 0.6147,-5.4495 -0.49,-13.6736 -1.5917,-11.8491 -1.2799,-21.7118 0.8655,-27.3831 2.3881,-6.3131 3.1703,-4.9442 1.5924,2.7865 -1.3872,6.7971 -1.394,7.5019 -0.1699,17.5149 0.9412,7.6996 1.058,10.8386 0.4456,11.983 -1.2579,2.3503 -1.0617,20.7678 0.2636,24.7358 0.6012,1.8006 1.2028,4.3053 1.3369,5.566 0.203,1.9075 0.5416,2.2501 2.0192,2.0433 1.5308,-0.2144 1.7412,0.039 1.5279,1.833 -0.136,1.1449 -0.8721,2.4601 -1.6356,2.9227 -1.1482,0.6954 -1.6963,0.4596 -3.1669,-1.3629 -1.4125,-1.7505 -2.1769,-2.104 -3.7153,-1.7178 -1.0653,0.2672 -2.4896,1.0386 -3.1653,1.7143 -0.8501,0.8503 -1.8664,1.0684 -3.3005,0.7084 -5.8012,-1.4559 -7.0494,-1.3706 -10.1707,0.695 -1.6975,1.1232 -3.836,1.9358 -4.7521,1.8052 -1.4727,-0.2101 -1.71,-0.8213 -2.0477,-5.2797 -0.4602,-6.0742 -1.5094,-7.5637 -5.3277,-7.5637 -4.3378,0 -7.7281,1.4272 -11.1276,4.6844 -2.5365,2.4301 -3.6313,2.9559 -6.1572,2.9559 -3.3525,0 -4.6986,0.8079 -6.6823,4.0111 -1.0497,1.6946 -1.8517,2.0957 -4.1487,2.0739 -1.5661,-0.022 -3.707,-0.5186 -4.7575,-1.119 -2.8729,-1.6423 -7.0963,-1.4116 -9.554,0.5214 -1.9753,1.5538 -8.0185,10.1079 -8.0185,11.35 0,0.3059 15.9012,0.7429 35.3359,0.9707 19.4349,0.228 38.0865,0.7671 41.4482,1.1983 3.3616,0.4309 11.6107,1.1591 18.3312,1.6178 6.7206,0.4588 12.5654,1.185 12.9884,1.6136 0.9189,0.9311 -23.2635,0.5993 -57.1404,-0.7837 -12.5206,-0.5114 -23.1535,-0.8001 -23.6288,-0.6415 -0.4752,0.158 1.8613,0.8907 5.1922,1.6273 35.0034,7.7407 51.8379,13.6854 59.3948,20.9736 6.2914,6.0677 8.5681,12.3578 6.958,19.224 -0.5436,2.3178 -1.8696,6.2009 -2.9466,8.6291 -2.585,5.8276 -2.5347,9.3954 0.1896,13.4518 4.7437,7.0631 11.1749,10.9395 28.6338,17.2596 13.5446,4.9029 53.235,16.445 56.5508,16.445 0.6087,0 1.5348,0.5159 2.0579,1.1461 1.9124,2.3043 -3.7803,1.3796 -29.0328,-4.7159 -8.7648,-2.1159 -22.3019,-6.1814 -30.9428,-9.2927 -15.666,-5.6413 -19.9396,-7.958 -26.6005,-14.4194 -7.2156,-6.9996 -8.2333,-12.2026 -4.3159,-22.0641 3.4467,-8.6765 3.6571,-11.6236 1.1897,-16.6667 -4.4737,-9.1439 -13.879,-14.1559 -42.4441,-22.6173 -15.4641,-4.5808 -16.2942,-4.7634 -32.7464,-7.2026 -10.9459,-1.6228 -15.6363,-1.9374 -27.1227,-1.8208 -7.6384,0.078 -11.9971,0.2498 -9.686,0.3823 25.1958,1.444 44.3278,5.2762 64.1778,12.8549 20.6724,7.8926 28.8834,19.2226 22.7112,31.3379 -2.2521,4.4207 -12.0603,14.1948 -20.4192,20.3481 -3.1516,2.3201 -7.1797,5.7998 -8.9513,7.733 -5.4876,5.9873 -5.3333,9.1579 0.7589,15.5994 4.8973,5.1781 11.6831,9.1955 24.5919,14.5585 9.2142,3.8281 33.8446,12.4118 35.6151,12.4118 0.4686,0 0.5749,-1.051 0.2704,-2.6741 -0.7577,-4.0393 1.5098,-3.5314 3.4098,0.7641 0.8365,1.8909 1.8179,3.4381 2.1812,3.4381 0.3631,0 0.9841,-1.4612 1.38,-3.247 0.6737,-3.0397 2.0736,-4.183 2.3878,-1.9505 0.8107,5.7586 1.158,6.7254 2.4158,6.7254 0.7373,0 1.7717,-0.4296 2.2987,-0.9548 0.7669,-0.7646 1.2232,-0.6042 2.2868,0.8032 1.1401,1.5087 2.9322,2.0215 12.6218,3.6114 6.3257,1.0378 17.9057,2.1947 26.3258,2.6303 23.4986,1.2151 27.0342,1.7304 25.7817,3.7569 -0.4949,0.8008 -13.5026,1.2793 -14.2575,0.5242 z m -276.8869,-123.1163 c 0.8467,-0.2292 2.0988,-1.7573 2.8082,-3.4278 1.7387,-4.0936 3.2769,-4.0128 2.6131,0.1365 -0.4804,3.0043 -0.4224,3.1297 1.2394,2.6844 0.9587,-0.2568 2.0871,-0.4728 2.5072,-0.4797 0.4204,0 0.7898,-1.2119 0.8213,-2.6779 0.07,-3.2699 0.6768,-3.9715 2.2824,-2.6392 0.8103,0.6725 1.0906,1.7198 0.8212,3.0669 l -0.4092,2.0457 7.0286,-0.3828 c 7.4281,-0.4048 8.3797,-0.6417 6.7143,-1.6708 -1.3769,-0.8513 1.6321,-1.861 3.643,-1.2228 0.7804,0.2477 4.2615,0.132 7.7359,-0.2565 7.8284,-0.8758 9.0945,-1.91 9.3435,-7.6307 0.198,-4.5474 -1.0724,-6.2126 -4.7391,-6.2126 -2.7927,0 -3.8269,-1.3373 -3.8269,-4.9489 0,-3.6293 -1.7286,-6.5113 -3.9057,-6.5113 -0.8398,0 -3.7945,1.2032 -6.566,2.674 -2.7714,1.4709 -5.3485,2.6741 -5.7268,2.6741 -0.3784,0 -1.1958,-1.2154 -1.8166,-2.7012 -1.3709,-3.2812 -4.0469,-4.4736 -8.6564,-3.8573 -5.1485,0.6885 -7.7273,2.7771 -11.5296,9.3388 -3.1593,5.4521 -3.8548,6.1529 -8.5758,8.6437 -7.2692,3.8349 -8.1356,6.8925 -3.4199,12.0695 1.2689,1.3933 2.3733,1.7172 5.8256,1.7088 2.3431,0 4.9477,-0.197 5.7882,-0.4238 z m -1.886,-2.94 c -0.4662,-1.2266 -0.5227,-2.5841 -0.1359,-3.275 0.5218,-0.9324 0.8455,-0.6493 1.5422,1.3492 1.1234,3.2226 -0.2157,5.0568 -1.4062,1.9258 z m 22.6418,-1.7194 c -0.7905,-0.7905 -0.5999,-4.8387 0.2277,-4.8387 1.0823,0 2.504,3.0001 2.0198,4.2618 -0.4452,1.1601 -1.4153,1.4092 -2.2475,0.5769 z m 50.5489,-5.9848 c 0.1455,-0.8403 1.3279,-2.8739 2.6273,-4.5191 l 2.3626,-2.9912 -3.0025,1.6999 c -1.6513,0.9349 -4.5494,3.0584 -6.4404,4.7189 l -3.4381,3.0188 3.8132,-0.1993 c 3.1315,-0.1645 3.8606,-0.4727 4.0779,-1.7274 z m 36.8209,0.5731 c 0.01,-0.7354 0.6657,-2.7663 1.4588,-4.5131 l 1.4421,-3.1761 -1.6498,-0.4424 c -0.9075,-0.2437 -7.8546,-0.4475 -15.4382,-0.4533 h -13.7883 l -2.7389,2.865 c -2.49,2.6049 -4.4475,5.5249 -4.4475,6.6349 0,0.2378 7.9076,0.4323 17.5724,0.4323 16.22,0 17.5739,-0.1018 17.5894,-1.3371 z m -38.7809,125.6813 c -1.1108,-1.4145 -1.7872,-5.7949 -0.9725,-6.2984 0.868,-0.5364 3.0636,3.5396 3.0636,5.6874 0,1.7625 -0.9653,2.0445 -2.0911,0.611 z m 21.5545,0.1602 c -0.6716,-1.0865 0.2266,-4.553 1.1797,-4.553 0.954,0 0.9878,4.3467 0.038,4.9334 -0.3911,0.2419 -0.9391,0.071 -1.2178,-0.3804 z m 190.6422,-1.1004 c 0,-1.2411 3.2529,-2.3654 4.5408,-1.5694 1.8544,1.146 0.7799,2.7009 -1.8667,2.7009 -1.8523,0 -2.6741,-0.3476 -2.6741,-1.1315 z m -197.5849,-0.7261 c -0.2307,-0.6015 0.3759,-2.1696 1.3481,-3.4847 1.6798,-2.2722 1.8023,-2.314 2.4587,-0.8427 0.4883,1.0943 0.3189,2.1162 -0.5778,3.4846 -1.4212,2.1692 -2.6019,2.4773 -3.229,0.8428 z m -9.0869,-0.4414 c -0.6674,-1.0801 0.3435,-3.9298 1.2053,-3.3972 0.9292,0.5744 0.9207,4.1682 -0.01,4.1682 -0.3953,0 -0.9332,-0.347 -1.1953,-0.771 z m 101.3748,-4.7082 c 0.3599,-2.446 2.1542,-2.7081 2.1542,-0.3148 0,1.2841 -0.4191,1.9738 -1.1992,1.9738 -0.7964,0 -1.1172,-0.5572 -0.955,-1.659 z m 79.4541,-1.1458 c 0.3503,-1.8194 4.101,-3.1379 5.8278,-2.0487 2.5091,1.5827 1.4924,2.931 -2.397,3.1791 -3.203,0.2035 -3.6589,0.054 -3.4308,-1.1304 z m -89.5242,-0.6835 c 0,-1.6234 1.4123,-4.152 2.319,-4.152 0.8271,0 0.9791,2.3005 0.2734,4.1396 -0.5996,1.5627 -2.5924,1.572 -2.5924,0.022 z m -13.243,-2.3691 c -0.7814,-0.7816 -0.6045,-6.218 0.2191,-6.7269 0.8517,-0.5265 2.6153,5.3885 1.9348,6.4898 -0.5355,0.8663 -1.4265,0.9644 -2.1539,0.2371 z m 6.8762,0 c -0.9511,-0.9512 -0.5257,-4.0747 0.5549,-4.0747 1.0926,0 1.9918,1.5802 1.9918,3.5004 0,1.1132 -1.6385,1.4824 -2.5467,0.5743 z m 113.6418,-1.1318 c -0.6427,-1.04 1.691,-2.9429 3.609,-2.9429 1.5816,0 2.643,1.4072 1.7043,2.2599 -1.2493,1.1348 -4.7556,1.5855 -5.3133,0.683 z m -31.6368,-4.4443 c 0,-1.1617 3.0425,-2.488 4.4526,-1.9411 1.1553,0.4481 1.1357,0.5997 -0.2058,1.5868 -1.6892,1.2431 -4.247,1.4568 -4.247,0.3543 z m -54.0998,-8.3162 c -2.5812,-0.727 -2.0693,-2.0249 0.7987,-2.0249 1.7474,0 2.5481,0.3922 2.7301,1.3371 0.2677,1.3902 -0.5021,1.5403 -3.5288,0.6878 z m 11.6964,-0.8788 c 0.2597,-0.4203 1.6553,-0.764 3.1012,-0.764 1.4459,0 2.629,0.3437 2.629,0.764 0,0.4202 -1.3955,0.7641 -3.1012,0.7641 -1.8729,0 -2.9141,-0.3028 -2.629,-0.7641 z m -24.3033,-7.9731 c -0.7704,-0.5841 -1.0547,-1.2511 -0.642,-1.5063 1.1043,-0.6826 3.1708,0.3204 3.1708,1.539 0,1.3271 -0.7478,1.3176 -2.5288,-0.032 z m -17.2048,-6.299 c 0.1795,-0.9478 1.073,-1.4682 2.8067,-1.6347 2.1126,-0.2035 2.4984,0 2.2795,1.1461 -0.1798,0.9477 -1.0731,1.4682 -2.8067,1.6346 -2.1126,0.2036 -2.4984,0 -2.2795,-1.146 z m 83.6566,0.7744 c -1.0097,-1.0097 -0.552,-6.3668 0.544,-6.3668 1.2995,0 3.1036,4.1324 2.4956,5.7164 -0.4577,1.1932 -2.1374,1.5527 -3.0396,0.6504 z m 7.6197,-0.8459 c -0.668,-1.0807 0.3889,-4.0821 1.3274,-3.7695 1.1308,0.3768 1.1085,3.7678 -0.027,4.1464 -0.4868,0.1623 -1.0719,0 -1.3003,-0.3769 z m -137.864,-1.094 c -1.058,-1.0579 -1.2106,-3.3886 -0.2602,-3.976 0.8994,-0.5557 2.3887,2.9212 1.7169,4.0083 -0.4081,0.6602 -0.7723,0.6522 -1.4567,-0.032 z m 124.0865,-0.2873 c -0.7342,-1.9137 -0.5396,-4.9037 0.3193,-4.9037 0.8315,0 2.2732,3.1807 2.2732,5.0159 0,1.4838 -2.0134,1.3965 -2.5925,-0.1126 z m -218.0185,-0.1148 c -3.3102,-0.298 -4.213,-1.1985 -2.0386,-2.0327 0.6647,-0.2552 3.2432,-0.464 5.7302,-0.464 3.3554,0 4.5216,0.2747 4.5216,1.0644 0,1.1845 -1.7435,2.0623 -3.6916,1.8583 -0.701,-0.074 -2.7357,-0.2651 -4.5216,-0.426 z m 79.0124,0.05 c -0.6354,-0.6352 -0.6621,-3.5515 -0.047,-5.1537 0.7823,-2.0386 1.83,-0.52 1.83,2.6521 0,2.8276 -0.6062,3.6782 -1.7827,2.5016 z m -64.305,-1.7826 c 0.2597,-0.4202 1.291,-0.7641 2.292,-0.7641 1.0009,0 2.0324,0.3439 2.2921,0.7641 0.2815,0.4557 -0.6438,0.7641 -2.2921,0.7641 -1.6483,0 -2.5736,-0.3084 -2.292,-0.7641 z m 69.9078,-1.1461 c 0,-2.1339 1.1145,-2.5614 1.8283,-0.7014 0.7336,1.9118 0.5508,2.6116 -0.6823,2.6116 -0.713,0 -1.146,-0.7217 -1.146,-1.9102 z m 83.0443,1.4216 c -0.7965,-0.7965 0.2125,-1.8036 1.8071,-1.8036 0.8155,0 1.4829,0.5159 1.4829,1.1461 0,1.1333 -2.3454,1.602 -3.29,0.6575 z m -16.1958,-9.449 c -0.5802,-0.9387 1.5226,-1.8546 2.6533,-1.1557 0.4471,0.2763 0.6152,0.8226 0.3734,1.2137 -0.5831,0.9436 -2.4296,0.9081 -3.0267,-0.059 z m 96.2379,-3.2404 c -0.6447,-1.6807 -0.1278,-5.1711 0.796,-5.3732 1.0471,-0.2293 1.4493,4.8012 0.4627,5.7878 -0.5501,0.55 -0.9373,0.4225 -1.2587,-0.4146 z m 6.5262,-2.4846 c 0,-3.2495 1.9432,-3.6909 3.0804,-0.6997 0.8956,2.3554 0.4135,3.374 -1.5975,3.374 -1.1855,0 -1.4829,-0.5365 -1.4829,-2.6743 z m 8.0384,1.9365 c -0.5404,-0.8744 2.3902,-6.9025 3.3556,-6.9025 1.3238,0 1.5566,2.4313 0.4796,5.0088 -1.0579,2.5321 -2.8835,3.4334 -3.8352,1.8937 z m -272.1985,-1.5783 c -2.1158,-0.8504 -2.231,-2.2774 -0.2261,-2.8015 1.1489,-0.3006 1.4021,-0.8564 1.0986,-2.4116 -0.2279,-1.1682 0.083,-2.6662 0.7375,-3.5492 1.1259,-1.5198 1.1416,-1.5191 2.9617,0.1907 1.0064,0.9453 2.7654,1.7188 3.9087,1.7188 1.8183,0 1.9796,-0.184 1.2877,-1.4776 -1.3139,-2.4553 -0.9592,-6.0187 0.6869,-6.8996 2.8591,-1.5303 5.3001,-0.8847 8.5382,2.2579 3.3577,3.2584 3.5587,5.3558 0.5133,5.3549 -1.505,-4e-4 -1.743,0.3909 -1.743,2.865 0,2.5112 -0.3308,3.0309 -2.6741,4.2016 -2.9152,1.4561 -12.0103,1.788 -15.0894,0.5503 z m 14.3254,-3.7806 c 0.6303,-0.399 1.2197,-1.683 1.3096,-2.8536 0.09,-1.1704 0.2619,-2.9767 0.382,-4.0144 0.1542,-1.3313 -0.1988,-1.9704 -1.1998,-2.1726 -2.3787,-0.4806 -2.9703,0.9355 -1.48,3.5426 1.7345,3.0345 0.7575,4.9049 -2.9111,5.5729 l -2.595,0.4723 2.6742,0.089 c 1.4707,0.048 3.1898,-0.2375 3.8201,-0.6362 z m 155.0961,-3.8357 c 0,-0.4203 0.6876,-0.764 1.5281,-0.764 0.8404,0 1.528,0.3437 1.528,0.764 0,0.4203 -0.6876,0.764 -1.528,0.764 -0.8405,0 -1.5281,-0.3437 -1.5281,-0.764 z m -20.8995,-1.1443 c -1.0993,-1.0991 -1.8212,-4.9678 -0.9271,-4.9678 0.1815,0 1.0167,0.9643 1.856,2.1431 1.8387,2.5822 1.0938,4.8476 -0.9289,2.8247 z m 3.0594,-3.2545 c -0.8606,-1.3929 -1.3819,-6.2974 -0.6693,-6.2974 1.1034,0 3.229,3.5029 3.229,5.3212 0,1.4896 -1.8145,2.1816 -2.5597,0.9762 z m -172.783,-0.9493 c -0.6984,-1.1298 0.2701,-2.2921 1.9101,-2.2921 1.8698,0 2.7858,1.5101 1.4349,2.3657 -1.4067,0.891 -2.7673,0.861 -3.345,-0.074 z m 13.9434,0.197 c -5.8456,-0.2572 -7.6304,-1.1296 -4.1153,-2.0119 1.5204,-0.3817 1.8058,-0.9343 1.8058,-3.4959 0,-3.0188 1.8488,-6.9126 3.2821,-6.9126 0.4106,0 0.7464,0.6876 0.7464,1.5279 0,1.2785 0.5094,1.5282 3.1169,1.5282 3.0202,0 3.102,-0.067 2.6442,-2.1512 -0.7087,-3.2271 1.94,-6.2531 5.4734,-6.2531 2.1182,0 3.2771,0.5912 5.2414,2.674 1.3871,1.4707 2.889,2.6742 3.3373,2.6742 0.9112,0 1.144,2.2584 0.2424,2.3504 -3.5786,0.3651 -5.5392,1.7474 -5.5392,3.9055 0,3.622 -4.0431,6.8755 -8.1751,6.5786 -1.1766,-0.085 -4.8035,-0.2709 -8.0603,-0.4141 z m 12.9147,-5.1935 c 0.6922,-0.9467 0.7806,-1.6686 0.2675,-2.1816 -1.282,-1.2821 -0.8625,-3.2659 0.9522,-4.5019 1.6209,-1.1041 1.6448,-1.2474 0.4203,-2.5107 -1.9813,-2.0439 -3.9448,-0.1322 -3.3147,3.2261 0.7201,3.8383 -1.6528,5.8338 -6.5344,5.4954 -2.0634,-0.1428 -3.7514,-0.022 -3.7511,0.275 0,2.4945 10.1579,2.6625 11.9602,0.197 z m 19.7948,4.5538 c -1.2683,-1.2682 -0.9742,-2.6136 0.5705,-2.6112 0.6333,0 0.83,-1.4168 0.647,-4.665 -0.3301,-5.8583 0.5448,-6.8954 3.6284,-4.3009 2.2339,1.8796 8.0772,3.5065 9.0612,2.5226 0.2647,-0.2646 -0.1022,-1.4691 -0.8155,-2.6765 -1.7186,-2.9095 -1.6365,-4.1686 0.4221,-6.4725 2.6312,-2.9448 5.4438,-3.2924 7.7751,-0.961 1.0619,1.0619 2.8842,2.0401 4.0495,2.1741 1.5284,0.1755 2.1189,0.6693 2.1189,1.7716 0,1.1641 -0.6368,1.619 -2.6742,1.91 -2.3874,0.3411 -2.6702,0.6276 -2.6385,2.674 0.02,1.2607 0.2933,3.0427 0.6082,3.9596 0.4315,1.2567 0.046,2.2508 -1.5635,4.034 -1.923,2.1299 -2.7846,2.4396 -8.6305,3.1016 -8.9719,1.0162 -11.1624,0.9358 -12.5587,-0.4604 z m 18.6865,-4.1697 c 0.4866,-0.9093 0.626,-2.9393 0.335,-4.8801 -0.3638,-2.4262 -0.1683,-3.827 0.7242,-5.1892 1.3965,-2.1311 0.9742,-2.8899 -1.6081,-2.8899 -2.3766,0 -2.9452,1.7011 -1.3715,4.1029 3.5914,5.4813 -4.2023,9.7653 -10.7437,5.9058 -3.2519,-1.9187 -3.3959,-1.9366 -3.3959,-0.4237 0,0.6494 0.8439,2.0246 1.8753,3.0561 1.6581,1.6581 2.5398,1.8753 7.6133,1.8753 4.9919,0 5.8463,-0.2014 6.5714,-1.5572 z m 112.8047,-0.4803 c -0.8079,-0.8078 -0.591,-6.2261 0.2707,-6.7586 1.0022,-0.6194 3.1703,4.5116 2.5688,6.0792 -0.4702,1.2253 -1.9416,1.5773 -2.8395,0.6794 z m 93.7597,-5.7444 c -1.0165,-1.6447 -4.0238,-13.1397 -3.6118,-13.8061 0.9146,-1.4798 2.8265,0.025 4.128,3.2514 l 1.3874,3.4381 -0.3702,-7.6403 c -0.429,-8.8559 -1.7451,-22.1978 -2.3437,-23.7577 -0.2658,-0.6926 -1.5848,-1.0727 -3.7229,-1.0727 -4.6328,0 -4.9993,-1.3649 -0.5256,-1.9583 l 3.6931,-0.4898 -1.2688,-8.5317 c -0.7154,-4.811 -1.9537,-9.8579 -2.8393,-11.5732 -1.9627,-3.8009 -6.8552,-8.5029 -12.6135,-12.1227 -6.7625,-4.2511 -10.5325,-8.5124 -13.2699,-14.9996 -1.857,-4.4008 -2.824,-5.8041 -4.2021,-6.0983 -2.622,-0.5596 -6.7562,-3.2316 -6.7562,-4.3667 0,-1.2228 1.117,-1.1975 4.7751,0.1082 3.3101,1.1813 3.3852,0.9876 1.3538,-3.4891 -1.5581,-3.4338 -1.9765,-6.0139 -0.9718,-5.9922 0.5528,0.022 1.9231,2.7258 8.542,16.9174 3.4353,7.3654 6.7036,10.7655 13.8373,14.3946 7.6278,3.8805 13.6152,11.0369 15.58,18.6226 0.6393,2.4682 2.0602,6.0196 3.1575,7.8919 2.5518,4.3544 6.0571,18.215 7.21,28.5102 0.4934,4.404 1.1531,10.1686 1.4663,12.8101 0.4092,3.4506 0.2972,5.1712 -0.3982,6.1121 -1.8634,2.5218 -2.6063,-0.1624 -3.035,-10.9597 -0.4386,-11.0541 -3.1776,-28.3894 -5.2809,-33.4232 -2.3224,-5.5583 -2.3178,-3.4554 0.023,10.9296 1.9806,12.169 3.5933,30.6747 2.7468,31.5213 -0.4347,0.4347 -0.5942,1.7718 -0.3542,2.9709 0.3319,1.66 0.1487,2.1807 -0.7675,2.1807 -0.662,0 -1.554,-0.6016 -1.9824,-1.3369 -0.6658,-1.1431 -0.7821,-1.0322 -0.8019,0.7638 -0.024,2.1763 -1.7268,2.9072 -2.7848,1.1955 z m 25.9505,-0.2612 c -0.6701,-1.7464 0.6338,-6.6593 1.8754,-7.0661 0.7547,-0.2473 0.9407,0.6543 0.764,3.7018 -0.2347,4.0489 -1.6731,5.8822 -2.6394,3.3643 z m -6.8665,-2.2668 c -0.2409,-0.6279 -0.7149,-0.9707 -1.0531,-0.7615 -0.3383,0.2101 -1.1619,0.1711 -1.83,-0.087 -0.9616,-0.3691 -1.215,-1.6643 -1.215,-6.2111 0,-3.7628 -1.1863,-11.6525 -3.4381,-22.867 -1.8909,-9.4173 -3.4381,-17.7462 -3.4381,-18.5088 0,-0.7628 -1.5472,-3.7422 -3.4381,-6.6213 -1.891,-2.8789 -3.4394,-5.7665 -3.4409,-6.4164 -0.01,-3.3139 -10.8268,-16.5131 -17.5642,-21.4283 -8.091,-5.9032 -9.1968,-6.9729 -11.1087,-10.7457 -1.023,-2.0187 -2.0831,-5.6699 -2.356,-8.1137 -0.2728,-2.4439 -0.9787,-5.0001 -1.5686,-5.6805 -0.59,-0.6805 -2.3143,-3.6029 -3.8317,-6.4942 -1.5175,-2.8912 -3.3958,-6.4471 -4.1741,-7.9016 -1.8046,-3.3725 -1.8916,-8.2987 -0.1584,-8.9637 1.4921,-0.5727 3.3275,1.6076 3.3275,3.9526 0,0.8815 0.7112,2.9645 1.5804,4.629 0.8691,1.6649 2.2538,4.7458 3.0771,6.8467 0.8233,2.1012 1.8061,4.5078 2.1839,5.3483 0.3779,0.8404 1.0933,3.8403 1.5899,6.6663 1.276,7.2618 3.8906,11.015 10.2694,14.7415 2.8626,1.6724 7.6229,5.2756 10.5783,8.0069 4.3166,3.9895 5.2673,4.5905 4.8335,3.0561 -0.2971,-1.0503 -0.8855,-5.0044 -1.3077,-8.7862 -0.4223,-3.7819 -1.0999,-8.9787 -1.5058,-11.5483 -1.3931,-8.8188 -0.6931,-17.8283 1.153,-14.8411 0.2577,0.4172 0.6479,2.5715 0.8671,4.7877 0.2191,2.2161 0.8774,6.092 1.4629,8.6134 0.5856,2.5211 1.2661,5.8733 1.5124,7.4491 0.2464,1.5758 0.6094,2.8653 0.8069,2.8653 0.1973,0 2.1587,-1.0072 4.3585,-2.2378 2.1996,-1.2305 6.2137,-2.8041 8.9198,-3.4965 6.0161,-1.5396 9.4643,-3.2513 13.7326,-6.8175 1.7964,-1.5009 3.6007,-2.7287 4.0094,-2.7287 1.4519,0 -0.3297,3.4815 -3.4209,6.6851 l -3.1331,3.2471 h 3.5036 c 3.5303,0 5.838,1.4361 4.8574,3.0227 -0.6385,1.033 -11.3134,1.0415 -12.3453,0 -0.8544,-0.8546 -5.8009,0.228 -14.9817,3.2787 -3.834,1.2741 -5.1516,2.0662 -5.1571,3.1008 -0.01,0.7643 0.8325,4.7181 1.8591,8.7862 1.0265,4.0681 2.1053,9.2877 2.3971,11.5988 0.5571,4.4107 2.4653,8.9888 4.4248,10.615 1.8973,1.5748 5.8707,8.1864 7.2704,12.0978 l 1.3046,3.6458 h 6.2852 6.2852 l -0.3756,-1.91 c -0.2066,-1.0506 -0.7352,-4.6312 -1.1745,-7.9571 -0.6045,-4.5776 -1.1676,-6.3055 -2.3169,-7.1105 -1.1203,-0.7848 -1.5182,-1.9368 -1.5182,-4.3957 0,-1.8327 0.208,-3.8741 0.4621,-4.5364 0.5671,-1.4781 1.8283,-0.8366 1.8346,0.9333 0.01,0.7106 0.4954,2.2323 1.0952,3.3819 0.5996,1.1496 1.8258,5.2753 2.725,9.1682 2.1921,9.4915 3.2813,12.4263 4.6111,12.4263 0.8,0 1.2233,-1.2223 1.5006,-4.3336 0.6669,-7.4816 1.8454,-6.4543 4.1889,3.6508 0.6401,2.7593 0.9694,5.3312 0.7322,5.7151 -0.5945,0.9618 -2.151,0.8745 -3.2053,-0.1798 -0.9116,-0.9115 -1.4439,-0.9793 -12.7984,-1.6319 l -6.8762,-0.395 -0.1312,16.1596 c -0.1026,12.6247 0.064,15.8434 0.7641,14.7129 1.7944,-2.9001 4.2161,-5.4165 4.7245,-4.9095 0.641,0.6393 -4.154,10.5585 -5.104,10.5585 -0.3758,0 -0.8804,-0.5137 -1.1212,-1.1415 z m -4.8801,-35.5314 c -0.9497,-4.4014 -3.7837,-11.7335 -4.3257,-11.1914 -0.2336,0.2337 3.4278,19.2212 4.485,23.258 0.077,0.2969 0.2777,-1.3513 0.4444,-3.6622 0.1666,-2.3114 -0.1051,-6.0932 -0.6037,-8.4044 z m -196.3353,35.234 c 0,-0.7782 3.0503,-1.4918 4.422,-1.0344 1.9181,0.6394 0.8239,1.7094 -1.7479,1.7094 -1.4708,0 -2.6741,-0.3037 -2.6741,-0.675 z m 117.6593,-5.0552 c -0.7947,-0.9575 -0.6844,-1.146 0.6704,-1.146 0.932,0 1.6215,0.4874 1.6215,1.146 0,0.6305 -0.3017,1.1461 -0.6705,1.1461 -0.3687,0 -1.0983,-0.5156 -1.6214,-1.1461 z m 17.3037,-4.7825 c -0.4425,-0.7161 1.2144,-4.6145 2.8379,-6.6777 1.162,-1.4771 1.2031,-1.446 1.2266,0.9191 0.042,4.2511 -2.644,8.0569 -4.0645,5.7586 z m -124.6725,-2.5139 c -0.7259,-1.1746 0.2685,-1.9325 1.2491,-0.9518 0.5487,0.5486 0.5619,0.9759 0.04,1.2985 -0.4277,0.2643 -1.0078,0.1084 -1.289,-0.3467 z m -29.0089,-0.7753 c -3.7819,-0.3303 -8.7673,-0.8388 -11.0784,-1.1298 -3.7342,-0.4705 -3.9894,-0.6104 -2.2921,-1.2559 1.8157,-0.6907 21.3986,0.2427 29.7969,1.42 3.0186,0.4232 3.2051,0.5518 1.528,1.0547 -2.401,0.7196 -9.0762,0.6865 -17.9544,-0.089 z m -53.0158,-0.8009 c -6.8875,-0.342 -12.9041,-0.779 -13.3704,-0.9713 -1.5605,-0.6435 23.5936,-1.2358 28.9072,-0.6805 3.4367,0.3591 3.648,0.4899 2.3371,1.4485 -0.7926,0.5797 -2.321,1.0025 -3.3962,0.9396 -1.0753,-0.063 -7.5903,-0.3944 -14.4777,-0.7363 z m 24.747,0.087 c -0.2816,-0.4558 0.6438,-0.7642 2.292,-0.7642 1.6483,0 2.5736,0.3084 2.2921,0.7642 -0.2597,0.42 -1.2912,0.7638 -2.2921,0.7638 -1.0009,0 -2.0323,-0.3438 -2.292,-0.7638 z m 178.3988,0.093 c 0,-1.5273 2.3872,-6.237 2.9767,-5.8724 0.7698,0.4758 0.1744,4.2536 -0.8806,5.5882 -0.8711,1.1017 -2.0961,1.2678 -2.0961,0.2842 z m -2.5339,-2.118 c -0.7561,-0.756 -0.6419,-5.4513 0.1444,-5.9373 0.8524,-0.5267 1.7873,5.0498 0.9816,5.8555 -0.3322,0.3323 -0.8389,0.369 -1.126,0.083 z m -137.0908,-2.3875 c -2.7115,-0.4387 -2.0028,-1.7 0.955,-1.7 1.4708,0 2.6741,0.307 2.6741,0.6824 0,0.9224 -1.5433,1.3551 -3.6291,1.0176 z m -53.2904,-1.467 c -0.8405,-0.082 -3.591,-0.3879 -6.1122,-0.6796 -4.205,-0.4869 -4.3947,-0.5859 -2.2921,-1.1973 2.4845,-0.7225 34.5574,-0.3442 35.3182,0.4166 1.2457,1.2457 -1.7013,1.6094 -13.0396,1.6094 -6.7906,0 -13.0339,-0.067 -13.8743,-0.1495 z m 33.2349,-0.233 c -0.8022,-0.5183 0.4152,-0.7439 4.0561,-0.7522 3.2763,0 5.0274,0.2712 4.73,0.7522 -0.6034,0.9765 -7.2753,0.9765 -8.7861,0 z m 149.1366,-1.6809 c -1.0921,-1.0921 -1.234,-5.1953 -0.1796,-5.1953 0.9948,0 2.3188,2.5891 2.3188,4.534 0,1.7782 -0.7811,2.0197 -2.1392,0.6613 z m 29.0003,-6.9604 c -1.7719,-2.1349 -2.6754,-9.3647 -1.7588,-14.0729 0.4721,-2.4247 1.0566,-10.4251 1.2988,-17.7788 0.3983,-12.0852 1.4757,-21.2753 2.3875,-20.3636 0.191,0.1906 0.4673,7.8595 0.6138,17.0407 0.2361,14.7945 0.092,17.345 -1.2585,22.4235 -1.2011,4.5137 -1.3494,6.187 -0.6992,7.8824 0.6544,1.7068 1.1536,2.0484 2.4103,1.6494 1.3818,-0.4386 1.5531,-0.2248 1.3365,1.6678 -0.2812,2.4558 -2.8237,3.3668 -4.3304,1.5515 z m 17.9518,0.4273 c -0.2225,-0.3599 -0.072,-2.1341 0.3342,-3.9425 0.5062,-2.2526 0.4601,-4.7043 -0.146,-7.7851 -1.0295,-5.2331 -0.5782,-16.3824 0.7155,-17.6763 0.4889,-0.4888 0.9037,-0.7339 0.9221,-0.5448 2.3227,23.9793 2.4219,26.0896 1.3244,28.1702 -1.0576,2.005 -2.5053,2.8225 -3.1503,1.7785 z m -8.9512,-1.5273 c -0.026,-0.7352 -0.022,-4.6033 0.013,-8.595 0.033,-3.9922 -0.2911,-9.1492 -0.7202,-11.4604 -1.4798,-7.9704 -1.755,-12.6814 -0.8406,-14.3898 1.3416,-2.5069 2.3586,-1.9873 2.3696,1.2104 0.01,1.5758 0.7135,5.0999 1.5736,7.8313 1.9228,6.1071 2.3939,19.4875 0.8404,23.8756 -1.0381,2.9324 -3.1501,3.93 -3.2352,1.5279 z m 70.3431,-5.9139 c -1.1349,-1.3677 -0.5656,-10.8313 0.7295,-12.1263 1.3958,-1.3958 1.8849,0.2787 1.912,6.5444 0.027,6.3213 -0.719,7.8983 -2.6415,5.5819 z m -88.2892,-3.8025 c -1.2048,-2.8838 -1.474,-10.1051 -0.4377,-11.7401 0.8313,-1.3113 1.2971,-0.1862 2.0425,4.9326 0.2985,2.0496 1.0137,4.6551 1.5895,5.7898 1.4351,2.8284 1.3163,3.6669 -0.5202,3.6669 -1.0659,0 -1.9209,-0.847 -2.6741,-2.6492 z m -9.9484,-2.2938 c -1.5627,-2.3849 -0.8891,-3.4426 1.0656,-1.6737 0.7711,0.6978 2.0051,1.2687 2.7424,1.2687 1.8576,0 1.0806,1.8556 -0.8994,2.1477 -1.0572,0.156 -2.057,-0.4428 -2.9086,-1.7427 z m 105.9204,0.7993 c -0.9595,-1.156 -0.6981,-7.6855 0.3496,-8.7332 1.6181,-1.6181 3.2225,6.4688 1.6969,8.5528 -0.9387,1.2824 -1.1188,1.2982 -2.0465,0.1798 z m -111.1179,-6.6478 c -0.2626,-1.3134 -0.486,-3.9778 -0.4962,-5.9213 -0.01,-1.9434 -0.3646,-5.0343 -0.7876,-6.8687 -0.754,-3.2702 -0.4146,-6.2152 0.7165,-6.2152 0.8148,0 3.7555,8.8895 4.3365,13.1089 0.6565,4.7694 -0.158,8.2838 -1.9198,8.2838 -0.9253,0 -1.5273,-0.7774 -1.8494,-2.3875 z m 114.8957,-3.028 c -0.9825,-2.1607 0.6927,-20.9434 1.8678,-20.9434 2.3369,0 2.4257,19.3306 0.1,21.6567 -0.9966,0.9965 -1.2279,0.9128 -1.9673,-0.7133 z m -40.2025,-3.4388 c -0.5386,-2.1459 0.079,-10.1132 0.8439,-10.8777 0.8853,-0.8852 1.8295,1.7276 2.3371,6.4675 0.2791,2.6064 0.278,5.1101 0,5.5635 -0.9238,1.4946 -2.6737,0.8598 -3.1789,-1.1533 z m -5.8871,-2.6857 c -0.4159,-1.5911 0.1742,-11.4674 0.7221,-12.081 0.7356,-0.824 1.1454,1.0239 1.5741,7.0975 0.396,5.6129 0.2914,6.5912 -0.7054,6.5912 -0.6437,0 -1.3595,-0.7234 -1.5908,-1.6077 z m 22.0879,-6.9876 c 0.1224,-4.3072 0.2615,-8.003 0.3094,-8.2132 0.048,-0.21 0.7362,1.165 1.5296,3.0561 2.2928,5.4642 1.8655,12.9883 -0.7378,12.9883 -1.1836,0 -1.3,-0.8272 -1.1012,-7.8312 z m 30.0723,3.0561 c -0.02,-0.5253 -0.017,-6.1122 0.01,-12.4153 0.024,-6.3905 -0.2936,-11.9674 -0.717,-12.6063 -0.6446,-0.9733 -0.7609,-0.9361 -0.7708,0.2469 -0.01,0.9119 -0.4735,1.3048 -1.3487,1.1375 -1.1711,-0.2242 -1.4008,-1.6304 -1.8507,-11.3255 -1.1126,-23.9708 -3.685,-32.6651 -10.9142,-36.8862 -4.2319,-2.4711 -5.7024,-4.0563 -5.7383,-6.1854 -0.022,-1.2622 0.2259,-1.1909 1.9907,0.5737 1.1083,1.1082 3.4044,2.4313 5.1024,2.9402 7.4723,2.2388 10.8069,9.115 12.5187,25.814 0.6247,6.0932 2.0082,14.8603 3.0745,19.4826 2.1832,9.4643 3.1705,24.6257 1.8286,28.0778 -0.8195,2.1081 -3.1157,2.9352 -3.182,1.146 z m -24.0405,-11.6515 c -0.01,-4.4122 0.09,-8.0221 0.2099,-8.0221 0.4438,0 1.8401,4.2982 2.4461,7.5292 0.6929,3.695 -0.2852,8.5154 -1.7277,8.515 -0.6571,-3e-4 -0.9217,-2.2863 -0.9283,-8.0221 z m -115.7268,4.2269 c -1.1902,-2.2242 -1.8387,-8.5129 -1.2186,-11.8181 0.637,-3.3957 1.9696,-2.8517 1.9696,0.8041 0,4.2101 1.5656,9.4614 2.8208,9.4614 1.7642,0 0.8031,2.6452 -1.0579,2.9113 -1.0648,0.1517 -1.9657,-0.3345 -2.5139,-1.3587 z m 121.4415,-1.599 c -0.6083,-1.1366 -0.6157,-3.036 -0.027,-6.8315 0.4486,-2.8915 0.8156,-7.3653 0.8156,-9.9421 0,-4.0474 0.1818,-4.6506 1.337,-4.4345 0.8536,0.1603 1.8424,1.7688 2.7345,4.4491 1.2103,3.6368 1.2865,4.9485 0.5691,9.7958 -0.4555,3.0781 -1.1825,6.2583 -1.6154,7.0672 -1.0275,1.9198 -2.7561,1.8728 -3.8139,-0.104 z m -127.6341,-9.5903 c -0.8172,-0.9884 -1.0681,-3.8216 -1.0353,-11.6874 0.059,-14.2703 1.3178,-16.1513 2.5085,-3.7505 1.0515,10.9515 1.1026,14.3823 0.2341,15.7515 -0.4958,0.7817 -0.8568,0.7154 -1.7073,-0.3136 z m -8.6102,-3.0413 c -0.2698,-1.9689 -0.483,-7.5716 -0.4739,-12.4503 0.013,-7.1052 0.3101,-9.5168 1.4908,-12.1177 0.8107,-1.7859 1.5766,-3.2464 1.7022,-3.2456 0.1256,0 0.2284,6.9577 0.2284,15.4597 0,13.5931 -0.1481,15.4869 -1.2284,15.6961 -0.9363,0.1818 -1.345,-0.6133 -1.7191,-3.3422 z m 45.2532,-3.1007 c -1.9612,-2.3604 -1.8422,-20.0833 0.1215,-18.1197 0.8328,0.8327 3.1688,17.7784 2.5818,18.728 -0.6154,0.9959 -1.5443,0.7869 -2.7033,-0.6083 z m 32.6956,-12.9995 c -0.2802,-0.2801 -0.5093,-4.9636 -0.5093,-10.4079 0,-8.4701 0.1567,-9.7683 1.0863,-8.9969 1.3381,1.1107 1.9825,4.7868 2.1534,12.2835 0.1504,6.5879 -0.7959,9.056 -2.7304,7.1213 z m 14.5419,-3.0794 c -0.2032,-0.3373 -0.4925,-3.1618 -0.6431,-6.2768 -0.189,-3.9124 0.01,-5.7582 0.6361,-5.9698 1.2771,-0.4298 2.6952,4.8385 2.3956,8.8998 -0.228,3.0899 -1.4839,4.8495 -2.3886,3.3468 z m 5.8556,-3.7761 c 0.2671,-1.9496 0.4967,-4.9579 0.51,-6.6851 0.024,-2.9272 0.1005,-3.0398 1.1461,-1.6574 1.1297,1.4937 1.5521,8.3489 0.6579,10.6788 -0.255,0.6646 -0.9894,1.2085 -1.6318,1.2085 -0.9502,0 -1.0775,-0.6615 -0.6822,-3.5448 z m -66.5953,-0.428 c -1.1837,-1.1838 -1.1246,-6.5053 0.1451,-13.0674 1.2425,-6.4201 3.216,-9.044 2.4751,-3.2906 -0.2645,2.0546 -0.481,6.7819 -0.481,10.5051 0,6.6895 -0.3487,7.6433 -2.1393,5.8529 z m 6.2495,-1.0876 c -0.6288,-2.5057 0.2735,-17.2697 1.2882,-21.075 0.4154,-1.558 1.1268,-3.0624 1.5807,-3.3431 0.9595,-0.5929 0.5507,22.8595 -0.437,25.0854 -0.8528,1.9215 -1.8509,1.6476 -2.4319,-0.6673 z m 76.5239,-13.467 c -0.1671,-0.5254 -0.4437,-5.5966 -0.6143,-11.2694 -0.2886,-9.5985 -0.2326,-10.1287 0.8059,-7.6402 1.4562,3.4887 2.2863,19.8644 1.0071,19.8644 -0.4921,0 -1.0315,-0.4296 -1.1987,-0.9548 z m -5.3152,-2.2286 c -0.1761,-0.5603 -0.5098,-4.8005 -0.7422,-9.4228 -0.2323,-4.6223 -0.6564,-9.2238 -0.9424,-10.2255 -0.899,-3.149 1.499,-1.466 2.6786,1.8799 1.3947,3.9558 1.6084,18.0056 0.2806,18.4602 -0.5252,0.1797 -1.0987,-0.1322 -1.2746,-0.6918 z m 10.4118,-6.3141 c 0.1219,-3.6058 0.5597,-6.5743 0.9728,-6.5969 1.0376,-0.057 2.7354,6.7258 2.499,9.9823 -0.1549,2.1341 -0.5474,2.7242 -1.9437,2.9225 -1.7212,0.244 -1.7461,0.1408 -1.5281,-6.3079 z m -43.6504,3.0749 c -0.9996,-1.2046 -1.0757,-20.2013 -0.087,-21.8003 1.0579,-1.7118 1.58,1.3796 2.0764,12.2919 0.4788,10.5227 0.1514,12.0875 -1.9891,9.5084 z" transform="translate(-48.683361,38.629271) translate(-1823.1296,-1895.8841)"/>
</svg>
